<svg version="1.1" id="Layer_1" xmlns="http://www.w3.org/2000/svg" xmlns:xlink="http://www.w3.org/1999/xlink" x="0px" y="0px"
	 width="30%" height="30%" viewBox="0 0 256 256" enable-background="new 0 0 256 256" xml:space="preserve">
<path fill="#000000" opacity="1.000000" stroke="none" 
	d="
M39.386742,193.227905 
	C38.885445,182.889709 44.905575,176.603226 51.948906,170.956055 
	C53.605728,169.627655 55.502419,168.598450 57.255390,167.453400 
	C50.659565,153.674408 51.332165,145.470505 59.406261,139.503922 
	C66.412399,134.326523 75.509697,134.614014 82.000771,140.217926 
	C89.592934,146.772430 89.989204,155.448792 83.096481,167.372086 
	C86.396111,169.776794 90.231239,171.504120 93.157440,174.468689 
	C94.795494,176.128220 96.123039,175.285538 97.357544,173.890350 
	C101.959152,168.689804 107.676758,165.034897 114.516296,161.899429 
	C108.266212,154.678589 104.159355,146.953674 106.869339,137.303864 
	C108.366035,131.974411 111.317429,127.677689 115.872726,124.488777 
	C124.599754,118.379494 136.686157,119.210831 144.470917,126.478928 
	C154.085571,135.455460 153.951599,146.060776 143.893143,161.853058 
	C147.286240,163.871063 150.859680,165.646469 154.023331,167.977951 
	C157.080826,170.231201 159.716080,173.057388 162.942291,176.001984 
	C166.709824,173.254028 170.206818,169.661804 175.345673,167.656570 
	C171.296646,161.591370 168.073196,155.687637 170.574814,148.411224 
	C171.937897,144.446457 174.234344,141.303391 177.596832,138.968277 
	C184.505936,134.170181 194.070084,135.030289 200.131836,140.866501 
	C206.914932,147.397186 207.151108,156.264877 200.773849,166.852402 
	C201.363998,168.847946 203.391510,169.207977 204.856476,170.151184 
	C210.488083,173.777054 214.716782,178.594879 217.350266,184.733856 
	C221.307739,193.959305 217.513275,200.276825 207.535522,200.903091 
	C202.886765,201.194870 198.207306,201.006744 193.541718,201.018494 
	C187.542633,201.033615 181.542908,201.082184 175.544662,201.013138 
	C172.792633,200.981491 171.486679,201.865601 170.972046,204.889160 
	C169.143219,215.633682 164.637283,219.199509 153.592148,219.213287 
	C137.094482,219.233856 120.596741,219.248734 104.099106,219.221298 
	C93.366737,219.203445 88.788368,215.565750 87.061623,205.108063 
	C86.526611,201.867859 85.178818,200.963196 82.186150,200.990295 
	C71.855148,201.083862 61.522732,201.038055 51.190910,201.018570 
	C45.753910,201.008301 41.346169,199.324066 39.386742,193.227905 
M153.510971,175.981476 
	C141.690674,165.725433 128.372665,163.077530 114.113754,169.617523 
	C100.437759,175.890152 93.772408,187.308212 93.440430,202.288071 
	C93.276520,209.684250 96.299492,212.627869 103.636826,212.645844 
	C120.620155,212.687439 137.603729,212.691528 154.587051,212.650848 
	C161.602341,212.634033 164.544144,209.708298 164.596741,202.578110 
	C164.671463,192.450684 161.170441,183.707809 153.510971,175.981476 
M122.530586,158.160934 
	C130.852600,162.475708 140.950150,156.791336 143.853210,149.912567 
	C147.088196,142.247330 144.519302,133.554749 137.614059,129.456558 
	C129.877274,124.864853 119.671867,127.163811 115.276688,134.488464 
	C110.113937,143.092270 112.681992,152.197540 122.530586,158.160934 
M174.875351,194.037537 
	C185.541733,194.033157 196.209015,194.108841 206.874146,193.991318 
	C212.370544,193.930756 213.412399,192.136841 211.277100,187.111450 
	C204.381210,170.882156 181.466095,166.648026 169.464508,179.385544 
	C165.658340,183.425110 168.486176,192.578003 174.875351,194.037537 
M61.123749,173.422775 
	C54.534046,176.156403 49.546967,180.572815 46.719330,187.222961 
	C44.555408,192.312164 45.541836,193.938538 51.131676,193.991318 
	C61.462204,194.088882 71.794327,194.007263 82.125717,194.029770 
	C84.847298,194.035690 87.573769,194.242050 88.367531,190.646423 
	C89.242546,186.682693 92.645996,182.894165 87.995155,178.848541 
	C80.241287,172.103714 71.561577,170.614090 61.123749,173.422775 
M188.346710,164.882034 
	C193.414291,164.664505 196.924164,161.981293 198.348373,157.339417 
	C199.665298,153.047241 199.007599,148.776978 195.350784,145.504257 
	C191.463165,142.025009 186.385696,141.487015 182.047104,144.103806 
	C177.908020,146.600266 175.577560,151.569763 176.494553,155.944122 
	C177.577591,161.110596 181.403534,164.213745 188.346710,164.882034 
M72.831604,164.663177 
	C78.177414,163.304428 81.073753,159.673325 81.539795,154.380142 
	C81.938072,149.856659 79.725349,146.268982 75.850250,144.012665 
	C71.733124,141.615417 67.559967,141.958054 63.646358,144.721497 
	C59.690235,147.514969 58.050438,152.865311 59.642635,157.681747 
	C61.191334,162.366592 65.548210,164.859543 72.831604,164.663177 
z"/>
<path fill="#000000" opacity="1.000000" stroke="none" 
	d="
M129.729462,61.494934 
	C134.474930,63.182285 134.663712,67.561485 135.706955,70.994957 
	C137.253082,76.083572 139.767593,78.514069 145.298508,77.834198 
	C147.871658,77.517891 150.662369,77.927856 153.199066,78.597366 
	C157.234131,79.662354 158.154251,83.278816 155.156128,86.196548 
	C152.659637,88.626099 149.840790,90.738060 147.070526,92.868210 
	C144.981552,94.474510 144.181335,96.183998 145.102676,98.884750 
	C146.226685,102.179459 146.868698,105.637825 147.737015,109.020828 
	C148.249222,111.016418 147.676956,112.655991 146.081741,113.893417 
	C144.419678,115.182709 142.609253,114.996918 140.930695,113.985374 
	C138.507050,112.524818 135.963394,111.161896 133.838074,109.331123 
	C130.462570,106.423424 127.496712,106.617783 124.173073,109.361473 
	C122.131981,111.046410 119.748276,112.323242 117.485695,113.730743 
	C115.680588,114.853653 113.778061,115.376549 111.925156,113.868317 
	C110.208794,112.471207 109.696693,110.667053 110.298767,108.498962 
	C111.189064,105.293007 111.804878,101.996750 112.901703,98.866531 
	C113.839172,96.191086 113.125298,94.489929 110.955345,92.887398 
	C108.279129,90.910980 105.726166,88.756393 103.222359,86.561928 
	C101.662323,85.194626 100.622253,83.504524 101.408104,81.257599 
	C102.117706,79.228668 103.815292,78.515671 105.686966,78.326202 
	C108.829063,78.008110 112.005356,77.626022 115.143211,77.775566 
	C118.591934,77.939934 120.342987,76.517502 121.281227,73.328918 
	C122.077469,70.622925 123.264542,68.031670 124.283867,65.391655 
	C125.185310,63.056953 126.527283,61.280579 129.729462,61.494934 
M113.312294,84.413986 
	C111.476723,85.740807 113.328812,86.437286 113.958603,86.782425 
	C120.924530,90.599854 121.389023,96.276146 118.791290,102.918350 
	C118.569107,103.486473 118.249031,104.160042 119.631371,104.771896 
	C125.542702,97.976669 132.185532,98.559433 139.108627,105.032463 
	C139.283310,100.133392 136.433014,96.566505 137.937531,92.788925 
	C139.347900,89.247681 143.802826,88.254944 146.240234,83.794273 
	C135.809982,86.690804 131.353867,81.321121 128.828629,72.638191 
	C126.800392,81.060753 122.749390,85.879448 113.312294,84.413986 
z"/>
<path fill="#000000" opacity="1.000000" stroke="none" 
	d="
M76.493439,76.836487 
	C80.826241,78.350281 85.049911,77.361626 89.145218,78.065735 
	C91.499382,78.470474 93.850761,78.953056 94.637245,81.644791 
	C95.434349,84.372841 93.822418,86.382141 91.782333,87.453712 
	C83.018532,92.056992 81.170540,98.640495 85.283897,107.408623 
	C86.290474,109.554253 86.478394,112.010002 84.227463,113.778915 
	C81.751877,115.724373 79.242928,114.770409 77.426926,113.015686 
	C70.350891,106.178368 63.557461,106.269691 56.504070,113.038689 
	C54.824249,114.650764 52.466400,115.591812 50.120502,113.892426 
	C47.671181,112.118134 47.548637,109.605316 48.704170,107.187759 
	C52.771599,98.678062 51.285233,92.138985 42.565346,87.575226 
	C40.421082,86.452980 38.420788,84.468697 39.427826,81.457298 
	C40.402477,78.542740 43.197628,77.764938 45.533997,78.128487 
	C55.630718,79.699570 60.425606,74.800102 62.291691,65.535583 
	C62.773457,63.143757 64.368271,61.290318 67.211563,61.433273 
	C69.752419,61.561024 70.893791,63.327351 71.731155,65.475098 
	C73.178337,69.186905 74.715111,72.863777 76.493439,76.836487 
M61.058365,102.215469 
	C67.007576,96.581543 71.860077,101.838203 77.480148,104.340096 
	C73.506104,95.921379 75.693901,89.775154 83.661087,84.841133 
	C73.646141,86.324348 69.152191,81.300407 66.922089,72.486015 
	C64.916649,82.072212 59.634537,86.239059 49.675148,84.696732 
	C58.221992,89.374268 60.140350,95.887657 56.041519,105.135948 
	C58.499702,103.739784 59.487049,103.179001 61.058365,102.215469 
z"/>
<path fill="#000000" opacity="1.000000" stroke="none" 
	d="
M196.937408,110.146805 
	C192.910416,106.183357 189.249573,106.456940 185.370819,109.863953 
	C183.637939,111.386093 181.500580,112.451424 179.531372,113.699783 
	C177.713379,114.852295 175.809814,115.306290 173.965836,113.846313 
	C172.231461,112.473122 171.710754,110.649994 172.326492,108.487381 
	C173.146652,105.606812 173.655670,102.608109 174.762604,99.846230 
	C176.141068,96.406929 175.020920,94.217522 172.246109,92.219673 
	C169.683838,90.374855 167.126160,88.442825 164.923187,86.198975 
	C161.726761,82.943214 162.753006,79.416046 167.208679,78.487488 
	C170.273499,77.848778 173.510574,77.611115 176.635406,77.794571 
	C180.481598,78.020378 182.480591,76.489182 183.480698,72.886513 
	C184.189850,70.331963 185.357483,67.905403 186.307983,65.416939 
	C187.125763,63.275936 188.292313,61.486935 190.870483,61.438007 
	C193.402557,61.389954 195.037720,62.850231 195.554626,65.162628 
	C197.599014,74.308281 202.037674,79.948456 212.567886,78.131294 
	C214.920364,77.725349 217.692184,78.630356 218.651947,81.518417 
	C219.656326,84.540771 217.588379,86.385017 215.448654,87.598488 
	C207.408951,92.157921 204.938354,98.240044 209.150787,106.845917 
	C210.293961,109.181335 210.799820,112.102631 207.875458,114.004288 
	C205.244568,115.715103 203.131439,114.144638 201.012772,112.784241 
	C199.751297,111.974251 198.493729,111.158211 196.937408,110.146805 
M200.148026,92.360229 
	C202.579865,89.835770 205.011719,87.311302 208.451111,83.740921 
	C197.834656,86.673912 193.407532,81.267426 191.308960,72.491814 
	C188.470215,76.401115 188.681717,80.870560 185.274155,83.203583 
	C182.054123,85.408226 177.921951,83.426872 173.417374,85.337875 
	C182.554443,89.481812 184.243073,95.945885 180.697266,104.889221 
	C187.720245,97.975380 194.361420,98.817101 201.183960,105.074471 
	C201.197601,100.192444 198.873001,96.842117 200.148026,92.360229 
z"/>
<path fill="#000000" opacity="1.000000" stroke="none" 
	d="
M109.854218,60.133057 
	C111.662422,61.876072 113.307640,63.290516 114.724854,64.905098 
	C115.917992,66.264381 116.271271,67.911217 114.764725,69.346527 
	C113.519264,70.533089 111.947495,70.619926 110.687248,69.542038 
	C106.785164,66.204582 102.929146,62.805763 99.199562,59.278179 
	C97.899269,58.048317 97.612953,56.329048 99.074745,54.843666 
	C100.491173,53.404396 102.088379,53.558731 103.542717,54.723969 
	C105.611351,56.381405 107.580673,58.162785 109.854218,60.133057 
z"/>
<path fill="#000000" opacity="1.000000" stroke="none" 
	d="
M148.164459,60.148048 
	C150.404358,58.162411 152.326309,56.347515 154.382782,54.700607 
	C155.804688,53.561893 157.446106,53.339043 158.822052,54.830719 
	C160.351608,56.488934 160.000610,58.253166 158.509827,59.656879 
	C155.147842,62.822498 151.704620,65.905144 148.218109,68.933655 
	C146.767441,70.193756 144.973053,70.969223 143.359253,69.308548 
	C141.596085,67.494186 142.354294,65.671898 143.929398,64.112419 
	C145.218719,62.835899 146.576477,61.628494 148.164459,60.148048 
z"/>
<path fill="#000000" opacity="1.000000" stroke="none" 
	d="
M132.206635,42.532906 
	C132.271332,45.604340 132.330627,48.242535 132.279861,50.878616 
	C132.235489,53.183167 131.699203,55.342007 128.813400,55.291664 
	C126.171318,55.245575 125.764282,53.184856 125.718353,51.085606 
	C125.664268,48.614033 125.695023,46.140537 125.694778,43.667873 
	C125.694588,41.751743 126.009918,39.893475 128.176987,39.356304 
	C130.368317,38.813110 131.510971,40.188293 132.206635,42.532906 
z"/>
</svg>