<svg version="1.1" id="Layer_1" xmlns="http://www.w3.org/2000/svg" xmlns:xlink="http://www.w3.org/1999/xlink" x="0px" y="0px"
	 width="19%" height="19%" viewBox="0 0 256 256" enable-background="new 0 0 256 256" xml:space="preserve">
<path fill="#FFF" opacity="1.000000" stroke="none"
	d="
M66.968445,203.968506 
	C63.190262,207.760391 59.683121,211.323624 56.127182,214.837463 
	C50.898273,220.004486 45.942001,220.504837 41.697289,216.348145 
	C37.523834,212.261215 38.005642,206.912872 43.046078,201.859131 
	C64.227325,180.621933 85.391113,159.367172 106.635208,138.192993 
	C109.560928,135.276886 112.901344,132.776855 115.715157,129.720367 
	C114.556175,126.888618 112.735268,125.808037 111.365494,124.435036 
	C88.768181,101.784233 66.141289,79.162926 43.507244,56.548801 
	C40.313686,53.358051 37.701134,50.048038 39.601379,45.106121 
	C41.875572,39.191689 48.302231,37.115124 53.483494,40.772060 
	C54.830647,41.722878 55.973900,42.977379 57.150665,44.152618 
	C79.318092,66.291336 101.488869,88.426758 123.609596,110.612061 
	C125.129242,112.136139 126.260765,114.047203 127.091652,115.143494 
	C130.894272,114.574036 132.021851,112.533028 133.498657,111.069809 
	C155.989075,88.786362 178.432465,66.455467 200.901459,44.150394 
	C202.198273,42.863041 203.502335,41.525600 205.007828,40.517208 
	C208.703339,38.041908 213.348007,38.646358 216.409378,41.805992 
	C219.481583,44.976826 219.936829,49.605148 217.375168,53.223923 
	C216.422119,54.570255 215.174530,55.718685 213.999542,56.895760 
	C191.513077,79.422447 169.026642,101.949203 146.499481,124.435143 
	C145.213303,125.718964 143.578369,126.653389 142.337997,127.577431 
	C143.759964,131.441330 146.184509,133.067383 148.118668,135.010590 
	C170.219894,157.215302 192.374130,179.367249 214.525009,201.522491 
	C217.705460,204.703537 220.392685,207.976242 218.414566,212.940247 
	C216.040482,218.897919 209.745850,220.902161 204.503159,217.187302 
	C203.022751,216.138306 201.759476,214.766190 200.465393,213.473404 
	C178.065903,191.096176 155.678772,168.706589 133.281906,146.326736 
	C132.006912,145.052704 130.671524,143.839111 128.662170,141.930527 
	C108.024620,162.683182 87.621140,183.200470 66.968445,203.968506 
z"/>
</svg>