<svg version="1.1" id="Layer_1" xmlns="http://www.w3.org/2000/svg" xmlns:xlink="http://www.w3.org/1999/xlink" x="0px" y="0px"
	 width="24%" height="24%" viewBox="0 0 256 256" enable-background="new 0 0 256 256" xml:space="preserve">
<path fill="#000000" opacity="0.000000" stroke="none"
	d="
M244.476654,257.000000 
	C248.735443,253.016785 254.141769,249.652786 256.745483,243.233521 
	C257.000000,247.586838 257.000000,252.173660 257.000000,257.000000 
	C252.986389,257.000000 248.969864,257.000000 244.476654,257.000000 
z"/>
<path fill="#000000" opacity="0.000000" stroke="none"
	d="
M1.000000,243.474121 
	C4.208054,248.466827 7.879320,253.487778 13.911516,256.660645 
	C9.739966,257.000000 5.479933,257.000000 1.000000,257.000000 
	C1.000000,252.650970 1.000000,248.299622 1.000000,243.474121 
z"/>
<path fill="#000000" opacity="0.000000" stroke="none"
	d="
M14.525872,1.000000 
	C9.424438,4.082893 4.471313,7.814910 1.332741,13.893145 
	C1.000000,9.739966 1.000000,5.479933 1.000000,1.000000 
	C5.349030,1.000000 9.700387,1.000000 14.525872,1.000000 
z"/>
<path fill="#000000" opacity="0.000000" stroke="none"
	d="
M257.000000,14.525872 
	C253.938187,9.396807 250.171509,4.471460 244.094177,1.338796 
	C248.260025,1.000000 252.520065,1.000000 257.000000,1.000000 
	C257.000000,5.349030 257.000000,9.700387 257.000000,14.525872 
z"/>
<path fill="#000000" opacity="1.000000" stroke="none" 
	d="
M130.000000,219.054321 
	C118.334404,219.053543 107.168335,219.113892 96.003403,219.027191 
	C89.917938,218.979935 88.662682,217.673477 88.683525,211.649734 
	C88.703682,205.824036 88.297615,199.911957 89.131729,194.191360 
	C90.965363,181.615692 97.723495,172.018555 108.523239,165.287476 
	C109.490799,164.684418 110.393066,163.976593 111.898659,162.912415 
	C103.188835,154.170639 98.295784,144.201950 101.803810,131.823517 
	C103.679955,125.203346 107.442566,119.783455 113.283508,115.972588 
	C125.203407,108.195564 141.558853,110.461502 150.461700,121.143135 
	C158.600891,130.908539 162.140320,147.735733 146.094070,162.675430 
	C146.706619,164.460159 148.557709,164.728363 149.872665,165.590317 
	C162.527267,173.885391 169.148499,185.497467 169.324570,200.686035 
	C169.368988,204.518494 169.371292,208.352386 169.323639,212.184738 
	C169.256134,217.613037 168.078644,218.937515 162.496246,219.005142 
	C151.832199,219.134323 141.165558,219.049927 130.000000,219.054321 
M112.503510,210.725433 
	C125.469635,210.729462 138.436752,210.834717 151.401581,210.707214 
	C162.881683,210.594330 162.223709,212.756332 161.488434,199.831192 
	C160.178131,176.797241 140.472641,163.164413 119.278893,169.589859 
	C101.214455,175.066574 95.377174,190.605774 96.376923,207.716187 
	C96.521515,210.190826 97.967766,210.719284 100.036362,210.710693 
	C103.859558,210.694809 107.682915,210.717880 112.503510,210.725433 
M112.469254,128.042419 
	C107.565712,136.345413 107.760742,144.910858 113.010201,151.799774 
	C117.950333,158.282776 126.240211,161.204117 133.829071,159.136337 
	C142.848282,156.678787 148.490295,149.803726 149.155396,140.460480 
	C149.743179,132.203430 144.505188,124.118065 136.473206,120.884277 
	C127.852173,117.413322 119.423157,119.758904 112.469254,128.042419 
z"/>
<path fill="#000000" opacity="1.000000" stroke="none" 
	d="
M193.997284,167.681473 
	C198.659622,167.675964 202.822647,167.655029 206.985535,167.672104 
	C209.015060,167.680435 210.562637,167.258652 210.788391,164.784470 
	C212.309525,148.113373 207.319870,133.556320 189.459030,126.697487 
	C181.942413,123.810989 174.103668,124.243698 166.515427,127.177887 
	C165.119293,127.717743 163.779602,128.413406 162.365173,128.893799 
	C160.392105,129.563934 158.751022,128.972412 157.596863,127.227890 
	C156.362106,125.361511 156.938049,123.721619 158.424591,122.331291 
	C159.264023,121.546204 160.247849,120.915520 161.947388,119.620255 
	C152.314438,111.452957 148.586716,101.171349 151.430099,88.936798 
	C153.008331,82.145958 157.052948,76.961754 162.714951,73.017036 
	C173.843048,65.264130 190.020554,66.996391 199.227371,76.891075 
	C210.496201,89.001823 209.432190,102.577911 195.888000,119.512589 
	C195.913605,120.537216 196.759506,120.850830 197.454163,121.242645 
	C212.559586,129.762817 219.282074,142.995377 219.275681,160.015503 
	C219.274429,163.345795 219.288223,166.676697 219.229889,170.006195 
	C219.166061,173.648117 217.386566,175.429840 213.616211,175.413467 
	C198.629776,175.348389 183.642914,175.377670 168.656219,175.381866 
	C166.073944,175.382584 163.856140,174.776428 163.819153,171.675659 
	C163.782837,168.632874 165.947296,167.748795 168.520599,167.730682 
	C176.846085,167.672043 185.172104,167.692001 193.997284,167.681473 
M189.175323,79.216576 
	C181.482407,74.809799 173.818024,74.972939 166.733337,80.216652 
	C160.234711,85.026596 157.212860,91.789040 158.800598,99.884804 
	C160.676071,109.447662 168.295197,116.038597 177.404022,116.627396 
	C186.147461,117.192581 194.488190,111.686943 197.615845,103.285736 
	C200.862305,94.565399 197.966736,85.785912 189.175323,79.216576 
z"/>
<path fill="#000000" opacity="1.000000" stroke="none" 
	d="
M75.997635,167.676239 
	C80.828346,167.689835 85.160049,167.671463 89.490730,167.729370 
	C92.089714,167.764114 94.218452,168.636398 94.175125,171.679306 
	C94.130707,174.798325 91.867020,175.376251 89.312790,175.377457 
	C74.319542,175.384537 59.326202,175.359894 44.333130,175.412994 
	C41.427231,175.423279 39.183331,174.401291 39.005001,171.399017 
	C38.198071,157.814194 38.124767,144.354355 46.994408,132.713409 
	C51.093708,127.333313 56.509514,123.556526 62.707523,119.852615 
	C55.001549,112.762032 50.352459,104.708099 51.101593,94.531464 
	C51.658833,86.961578 54.698410,80.355637 60.498840,75.270386 
	C71.904106,65.271362 87.996002,65.793747 99.465698,76.459114 
	C110.787926,86.987350 109.848473,101.966339 96.753166,119.625366 
	C96.881599,119.922066 96.940369,120.300285 97.160957,120.497452 
	C99.166718,122.290184 102.591911,123.543411 100.368690,127.167336 
	C98.309021,130.524643 95.540916,128.899963 92.889633,127.785393 
	C68.437050,117.505760 46.251102,136.175583 47.087280,157.817795 
	C47.542980,169.612457 46.452686,167.493851 57.006546,167.657043 
	C63.169060,167.752319 69.334229,167.675690 75.997635,167.676239 
M99.311096,99.710327 
	C100.339569,89.921631 96.038513,81.868813 87.729622,78.026451 
	C80.047417,74.473892 70.313446,76.286987 64.735168,82.309502 
	C58.525402,89.013802 57.332893,98.614861 61.752468,106.323792 
	C65.707283,113.222054 73.971664,117.741096 81.425087,116.519852 
	C90.639656,115.010040 96.772179,109.771149 99.311096,99.710327 
z"/>
<path fill="#000000" opacity="1.000000" stroke="none" 
	d="
M153.246048,52.976837 
	C161.445160,68.974976 156.200531,85.780586 141.032898,93.004417 
	C127.802696,99.305511 111.793564,94.320488 104.628731,81.668671 
	C97.248940,68.637276 100.898186,52.099236 112.931419,44.041649 
	C125.250191,35.792870 142.052017,38.315792 151.074265,49.784130 
	C151.792633,50.697247 152.407120,51.692089 153.246048,52.976837 
M148.350372,61.518162 
	C147.815155,60.299770 147.353241,59.042641 146.733047,57.869156 
	C142.033371,48.976574 131.287018,44.913013 121.936096,48.461727 
	C112.172653,52.167004 106.982277,62.357136 109.496666,72.883759 
	C111.592705,81.658943 121.444855,88.486588 130.774948,87.629829 
	C142.834106,86.522461 150.135666,76.135262 148.350372,61.518162 
z"/>
</svg>