<svg version="1.1" id="Layer_1" xmlns="http://www.w3.org/2000/svg" xmlns:xlink="http://www.w3.org/1999/xlink" x="0px" y="0px"
	 width="30%" height="30%" viewBox="0 0 256 256" enable-background="new 0 0 256 256" xml:space="preserve">
<path fill="#000000" opacity="0.000000" stroke="none"
	d="
M144.468658,257.000000 
	C148.682953,254.734680 153.913483,254.884720 158.843964,253.660660 
	C181.262894,248.094849 200.675644,237.404251 217.461700,221.428391 
	C239.407059,200.542282 251.731995,174.996841 256.629425,145.176056 
	C257.000000,182.260605 257.000000,219.521225 257.000000,257.000000 
	C219.646057,257.000000 182.291687,257.000000 144.468658,257.000000 
z"/>
<path fill="#000000" opacity="0.000000" stroke="none"
	d="
M1.000000,144.468658 
	C3.390827,148.985626 3.145597,154.558914 4.534821,159.787079 
	C11.090216,184.457382 23.262571,205.671539 42.153645,223.034271 
	C61.919262,241.200760 84.925041,252.255997 111.554680,255.755920 
	C112.184212,255.838669 112.774368,256.220978 113.691444,256.731812 
	C76.406380,257.000000 38.812756,257.000000 1.000000,257.000000 
	C1.000000,219.646057 1.000000,182.291687 1.000000,144.468658 
z"/>
<path fill="#000000" opacity="0.000000" stroke="none"
	d="
M257.000000,113.531342 
	C254.519958,108.009750 254.449554,101.476234 252.699097,95.292236 
	C243.037048,61.157990 222.691528,35.463211 192.201965,17.553499 
	C177.673737,9.019543 161.833069,4.529761 145.198059,1.361530 
	C182.260605,1.000000 219.521194,1.000000 257.000000,1.000000 
	C257.000000,38.353943 257.000000,75.708313 257.000000,113.531342 
z"/>
<path fill="#000000" opacity="0.000000" stroke="none"
	d="
M113.531342,1.000000 
	C108.185516,3.483290 101.792923,3.388506 95.785622,5.191938 
	C79.920799,9.954658 64.997467,16.476360 51.795208,26.653616 
	C25.136213,47.204300 8.873069,74.095367 2.520665,107.079575 
	C2.117410,109.173439 2.939553,111.453789 1.269571,113.693192 
	C1.000000,76.406380 1.000000,38.812759 1.000000,1.000000 
	C38.353943,1.000000 75.708313,1.000000 113.531342,1.000000 
z"/>
<path fill="#000000" opacity="1.000000" stroke="none"
	d="
M187.281052,100.499374 
	C188.533737,90.330254 188.533737,90.340462 178.821960,90.344360 
	C156.328659,90.353386 133.835373,90.353432 111.342072,90.350296 
	C109.676575,90.350067 107.995796,90.427849 106.348846,90.237785 
	C103.160843,89.869865 101.082558,88.079994 100.787880,84.821945 
	C100.468132,81.286781 102.399429,79.154488 105.736313,78.368652 
	C107.175095,78.029823 108.705902,77.975250 110.195160,77.973091 
	C137.520294,77.933388 164.845490,77.897636 192.170624,77.916855 
	C201.067810,77.923119 203.046707,80.407135 201.559738,89.224297 
	C198.161057,109.376930 194.785538,129.533478 191.405014,149.689178 
	C190.298431,156.287064 189.065140,157.375153 182.190628,157.381668 
	C154.865479,157.407547 127.540276,157.395569 100.215088,157.405289 
	C93.449287,157.407684 90.490494,158.998779 90.426437,162.623062 
	C90.363304,166.195114 93.208427,167.684906 100.166763,167.689438 
	C112.163185,167.697250 124.159615,167.690109 136.156036,167.695480 
	C137.488464,167.696075 138.835785,167.618103 140.150406,167.782639 
	C143.734375,168.231201 146.095184,170.155777 146.151932,173.908386 
	C146.205902,177.476562 143.881256,179.556915 140.593307,179.878296 
	C136.299454,180.298004 131.946991,180.176239 127.619751,180.175674 
	C124.901924,180.175323 123.461990,180.560730 123.707382,184.105301 
	C124.416885,194.354004 116.898895,202.238388 106.894165,202.345734 
	C96.726669,202.454803 89.224052,194.975555 89.584846,184.632645 
	C89.706154,181.155121 89.228676,178.892365 85.927231,176.862793 
	C79.364746,172.828476 76.868179,165.552780 78.703056,158.212952 
	C80.510239,150.983917 86.060104,146.490738 94.214516,145.624527 
	C95.016914,145.539291 95.804459,145.314148 96.619827,145.149734 
	C97.438896,142.089355 95.632309,139.840317 94.742500,137.445084 
	C86.800385,116.066177 78.696564,94.747078 70.826477,73.341942 
	C69.490990,69.709702 67.719704,67.991585 63.637589,68.059555 
	C58.499115,68.145119 55.615002,65.427505 55.783077,61.658146 
	C55.953243,57.841850 58.796425,55.783382 64.057732,55.690014 
	C65.556816,55.663410 67.056770,55.682331 68.556313,55.685398 
	C76.850433,55.702377 77.443672,56.192577 80.413483,64.150093 
	C89.841743,89.412842 99.410431,114.623795 108.689178,139.941132 
	C110.268791,144.251160 112.499367,145.783981 117.082367,145.723694 
	C136.073608,145.473953 155.070999,145.467056 174.063019,145.666885 
	C178.580292,145.714417 180.119186,143.944427 180.752014,139.746857 
	C182.707748,126.774643 185.001038,113.853317 187.281052,100.499374 
M104.390190,189.322998 
	C107.529945,190.366989 109.992508,189.527283 111.269348,186.428452 
	C112.232880,184.089996 111.109947,182.175278 109.081337,181.007507 
	C106.835274,179.714569 104.602760,179.996765 102.878891,182.072647 
	C100.752213,184.633621 101.449661,186.909531 104.390190,189.322998 
z"/>
<path fill="#000000" opacity="1.000000" stroke="none"
	d="
M181.204254,169.385971 
	C189.096664,174.005264 192.606461,181.336060 190.717163,188.690720 
	C188.555420,197.105957 182.157089,202.298111 173.923004,202.318893 
	C165.996246,202.338898 159.329239,197.491135 157.280731,189.850632 
	C155.573837,183.484344 156.700760,177.514359 161.534882,172.839264 
	C167.067032,167.489090 173.632065,166.275360 181.204254,169.385971 
M171.476898,180.987152 
	C168.440689,183.267197 168.219757,186.056061 170.863663,188.510071 
	C173.180344,190.660370 175.779465,190.011917 177.751266,187.558136 
	C178.904373,186.123169 178.881302,184.506470 178.044907,182.908005 
	C176.745697,180.424988 174.641418,180.018814 171.476898,180.987152 
z"/>
</svg>