<svg version="1.1" id="Layer_1" xmlns="http://www.w3.org/2000/svg" xmlns:xlink="http://www.w3.org/1999/xlink" x="0px" y="0px"
	 width="40%" height="40%" viewBox="0 0 256 256" enable-background="new 0 0 256 256" xml:space="preserve">
<path fill="#BAC8D3" opacity="0.000000" stroke="none"
	d="
M143.000000,257.000000 
	C95.333336,257.000000 48.166672,257.000000 1.000006,257.000000 
	C1.000004,171.666672 1.000004,86.333351 1.000002,1.000018 
	C86.333321,1.000012 171.666641,1.000012 257.000000,1.000006 
	C257.000000,86.333313 257.000000,171.666626 257.000000,256.999969 
	C219.166672,257.000000 181.333328,257.000000 143.000000,257.000000 
M213.651733,142.244568 
	C213.813705,134.782089 214.723068,127.248039 214.016541,119.868713 
	C209.372314,71.363213 163.901749,36.527390 115.677719,44.212513 
	C79.129524,50.036945 50.744949,78.223969 44.295647,115.097786 
	C38.149223,150.239899 55.687996,186.556412 87.566963,204.042465 
	C102.008446,211.963821 117.465622,216.004990 134.884781,214.546127 
	C158.216324,213.017212 177.655533,203.304489 193.128128,185.990326 
	C204.040726,173.778885 211.435883,159.664307 213.651733,142.244568 
z"/>
<path fill="#FE5B55" opacity="1.000000" stroke="none"
	d="
M134.110764,214.246780 
	C117.465622,216.004990 102.008446,211.963821 87.566963,204.042465 
	C55.687996,186.556412 38.149223,150.239899 44.295647,115.097786 
	C50.744949,78.223969 79.129524,50.036945 115.677719,44.212513 
	C163.901749,36.527390 209.372314,71.363213 214.016541,119.868713 
	C214.723068,127.248039 213.813705,134.782089 213.196350,142.543030 
	C195.670364,125.891983 178.611755,108.930374 161.508316,92.014091 
	C160.003769,90.526001 158.205734,89.334625 156.232117,87.662964 
	C155.104843,87.196465 154.289581,86.965012 153.474091,86.964149 
	C133.983047,86.943565 114.491989,86.941406 95.000961,86.966682 
	C94.068062,86.967888 93.135529,87.251114 92.249207,87.395454 
	C92.132339,88.172508 91.996178,88.656349 91.995857,89.140266 
	C91.978699,115.294861 91.959457,141.449493 92.009094,167.603989 
	C92.011383,168.810333 92.641998,170.015488 93.060440,171.542252 
	C98.848984,177.819077 104.534554,183.796646 110.270599,189.725372 
	C118.197403,197.918442 126.162216,206.074738 134.110764,214.246780 
z"/>
<path fill="#DC3D3F" opacity="1.000000" stroke="none"
	d="
M156.544022,88.005440 
	C158.205734,89.334625 160.003769,90.526001 161.508316,92.014091 
	C178.611755,108.930374 195.670364,125.891983 213.016281,142.957840 
	C211.435883,159.664307 204.040726,173.778885 193.128128,185.990326 
	C177.655533,203.304489 158.216324,213.017212 134.497772,214.396454 
	C126.162216,206.074738 118.197403,197.918442 110.270599,189.725372 
	C104.534554,183.796646 98.848984,177.819077 93.529190,171.479568 
	C114.669289,171.095840 135.421082,171.095840 156.091400,171.095840 
	C156.091400,163.474716 156.091400,156.564606 156.091400,149.460709 
	C152.636948,149.460709 149.561295,149.460709 145.899109,149.460709 
	C145.899109,153.259430 145.899109,156.816483 145.899109,160.295715 
	C131.107864,160.295715 116.909149,160.295715 102.726616,160.295715 
	C102.726616,139.152100 102.726616,118.433990 102.726616,97.656113 
	C117.317863,97.656113 131.530167,97.656113 146.139923,97.656113 
	C146.139923,101.459297 146.139923,104.897133 146.139923,108.546341 
	C149.621078,108.546341 152.698288,108.546341 156.544022,108.546341 
	C156.544022,101.539993 156.544022,94.772713 156.544022,88.005440 
M170.958435,116.511253 
	C169.000122,114.251762 167.041794,111.992264 164.798782,109.404282 
	C161.834732,112.435936 159.524811,114.798538 157.083328,117.295708 
	C159.049591,119.442810 160.835800,121.393280 163.480621,124.281342 
	C149.653839,124.281342 137.248520,124.281342 125.012718,124.281342 
	C125.012718,127.833244 125.012718,130.908463 125.012718,134.524277 
	C137.621979,134.524277 149.843582,134.524277 162.850510,134.524277 
	C160.577164,137.188660 158.916565,139.134872 157.430527,140.876511 
	C159.846039,143.515610 161.966476,145.832336 163.393295,147.391220 
	C169.906693,140.883377 176.183212,134.612198 182.852356,127.948746 
	C179.376083,124.613319 175.418396,120.815979 170.958435,116.511253 
z"/>
<path fill="#FFFEFE" opacity="1.000000" stroke="none"
	d="
M156.232117,87.662964 
	C156.544022,94.772713 156.544022,101.539993 156.544022,108.546341 
	C152.698288,108.546341 149.621078,108.546341 146.139923,108.546341 
	C146.139923,104.897133 146.139923,101.459297 146.139923,97.656113 
	C131.530167,97.656113 117.317863,97.656113 102.726616,97.656113 
	C102.726616,118.433990 102.726616,139.152100 102.726616,160.295715 
	C116.909149,160.295715 131.107864,160.295715 145.899109,160.295715 
	C145.899109,156.816483 145.899109,153.259430 145.899109,149.460709 
	C149.561295,149.460709 152.636948,149.460709 156.091400,149.460709 
	C156.091400,156.564606 156.091400,163.474716 156.091400,171.095840 
	C135.421082,171.095840 114.669289,171.095840 93.448730,171.158524 
	C92.641998,170.015488 92.011383,168.810333 92.009094,167.603989 
	C91.959457,141.449493 91.978699,115.294861 91.995857,89.140266 
	C91.996178,88.656349 92.132339,88.172508 92.249207,87.395454 
	C93.135529,87.251114 94.068062,86.967888 95.000961,86.966682 
	C114.491989,86.941406 133.983047,86.943565 153.474091,86.964149 
	C154.289581,86.965012 155.104843,87.196465 156.232117,87.662964 
z"/>
<path fill="#FFFDFD" opacity="1.000000" stroke="none"
	d="
M171.209564,116.764946 
	C175.418396,120.815979 179.376083,124.613319 182.852356,127.948746 
	C176.183212,134.612198 169.906693,140.883377 163.393295,147.391220 
	C161.966476,145.832336 159.846039,143.515610 157.430527,140.876511 
	C158.916565,139.134872 160.577164,137.188660 162.850510,134.524277 
	C149.843582,134.524277 137.621979,134.524277 125.012718,134.524277 
	C125.012718,130.908463 125.012718,127.833244 125.012718,124.281342 
	C137.248520,124.281342 149.653839,124.281342 163.480621,124.281342 
	C160.835800,121.393280 159.049591,119.442810 157.083328,117.295708 
	C159.524811,114.798538 161.834732,112.435936 164.798782,109.404282 
	C167.041794,111.992264 169.000122,114.251762 171.209564,116.764946 
z"/>
</svg>