<svg version="1.1" id="Layer_1" xmlns="http://www.w3.org/2000/svg" xmlns:xlink="http://www.w3.org/1999/xlink" x="0px" y="0px"
	 width="30%" height="30%" viewBox="0 0 256 256" enable-background="new 0 0 256 256" xml:space="preserve">
<path fill="#000000" opacity="0.000000" stroke="none"
	d="
M1.000000,250.497910 
	C2.928443,252.427292 4.739473,254.972626 7.774372,256.757233 
	C5.752364,257.000000 3.504728,257.000000 1.000000,257.000000 
	C1.000000,255.001862 1.000000,252.998840 1.000000,250.497910 
z"/>
<path fill="#000000" opacity="0.000000" stroke="none"
	d="
M6.500529,1.000000 
	C5.160482,3.182963 3.320965,5.365925 1.240723,7.774444 
	C1.000000,5.759803 1.000000,3.519605 1.000000,1.000000 
	C2.662771,1.000000 4.331914,1.000000 6.500529,1.000000 
z"/>
<path fill="#000000" opacity="1.000000" stroke="none"
	d="
M58.660252,181.999786 
	C58.659496,171.500519 58.545513,161.499191 58.722294,151.503006 
	C58.781124,148.176422 58.102028,146.220657 54.387970,145.729980 
	C47.330994,144.797714 42.189522,140.951706 40.248375,134.031586 
	C38.245617,126.891808 40.404743,120.752731 45.764126,115.432259 
	C69.299858,92.067467 92.671623,68.537605 116.159294,45.124245 
	C124.716576,36.594048 134.334198,36.668488 142.949539,45.264755 
	C166.425995,68.689201 189.814148,92.202347 213.340225,115.576729 
	C218.548691,120.751625 220.720276,126.746872 218.794540,133.720673 
	C216.900101,140.581177 212.017899,144.789566 204.896393,145.692154 
	C200.929962,146.194839 200.232285,148.190720 200.265793,151.707550 
	C200.411880,167.038422 200.353226,182.371582 200.316589,197.703796 
	C200.284973,210.934769 192.067001,219.142410 178.751572,219.240585 
	C170.919250,219.298325 163.085907,219.269821 155.253311,219.228561 
	C148.089813,219.190826 146.138733,217.292313 146.080612,209.943619 
	C145.987030,198.111893 146.064117,186.278931 146.029602,174.446594 
	C146.002930,165.315338 143.867462,163.165070 134.900620,163.128143 
	C131.234283,163.113052 127.567696,163.116440 123.901421,163.140976 
	C115.262627,163.198807 113.068428,165.382538 113.016785,174.208496 
	C112.951469,185.374008 112.991577,196.540115 112.965538,207.705917 
	C112.941689,217.931808 111.604881,219.269547 101.505890,219.266418 
	C94.506371,219.264252 87.506615,219.290619 80.507370,219.243820 
	C66.831932,219.152405 58.708710,211.051514 58.663280,197.497925 
	C58.646526,192.498596 58.660503,187.499146 58.660252,181.999786 
M113.620216,64.120056 
	C98.072670,79.675125 82.525902,95.230972 66.977074,110.784760 
	C62.500927,115.262337 58.052986,119.768951 53.523628,124.192123 
	C51.542053,126.127243 50.633541,128.370575 51.578876,130.959274 
	C52.555004,133.632294 54.954487,134.455185 57.595619,134.622055 
	C58.591866,134.684982 59.594196,134.653549 60.593784,134.661346 
	C68.824890,134.725555 70.244377,136.098038 70.252892,144.192200 
	C70.271477,161.853134 70.229012,179.514191 70.273979,197.175034 
	C70.293312,204.766632 73.235413,207.608261 80.936180,207.668381 
	C85.601059,207.704788 90.290154,207.382706 94.925148,207.756958 
	C99.881516,208.157181 101.120277,206.133911 101.121468,201.446930 
	C101.124298,190.299408 100.279045,179.114655 101.681053,168.001266 
	C102.840019,158.814423 110.455109,151.919098 119.659370,151.664825 
	C125.985641,151.490067 132.322525,151.522614 138.651062,151.646576 
	C148.681976,151.843048 156.277390,158.809357 157.371750,168.871521 
	C158.491516,179.167358 157.870804,189.502945 157.731903,199.822479 
	C157.698639,202.293976 157.317169,204.765747 158.342743,207.155853 
	C158.891342,207.322464 159.358185,207.584473 159.827225,207.588455 
	C165.824493,207.639465 171.822174,207.689178 177.819519,207.668228 
	C185.823914,207.640244 188.715973,204.819916 188.735321,196.898331 
	C188.777649,179.570694 188.744843,162.242889 188.759476,144.915161 
	C188.767029,135.956238 189.985580,134.689697 198.695435,134.665237 
	C202.080338,134.655716 205.683868,134.891708 207.316177,131.148331 
	C208.964264,127.368813 206.320557,124.971146 203.900421,122.555664 
	C186.211670,104.900757 168.560303,87.208366 150.892685,69.532272 
	C145.474640,64.111626 140.114853,58.629860 134.593033,53.316753 
	C130.535080,49.412178 128.496918,49.482388 124.399338,53.400711 
	C120.908051,56.739265 117.541794,60.208576 113.620216,64.120056 
z"/>
</svg>