<svg version="1.1" id="Layer_1" xmlns="http://www.w3.org/2000/svg" xmlns:xlink="http://www.w3.org/1999/xlink" x="0px" y="0px"
	 width="30%" height="30%" viewBox="0 0 256 256" enable-background="new 0 0 256 256" xml:space="preserve">
<path fill="#000000" opacity="0.000000" stroke="none"
	d="
M70.531342,1.000000 
	C68.796028,3.315279 65.575966,2.977684 62.885994,4.045726 
	C43.794857,11.625789 32.202641,25.293846 28.304592,45.536167 
	C27.255281,50.985172 27.353334,56.433533 27.352564,61.905933 
	C27.346001,108.502258 27.267323,155.098770 27.383009,201.694809 
	C27.440298,224.769302 38.322514,241.409256 58.455097,252.249283 
	C62.287167,254.312592 66.594849,254.968124 70.838066,256.647125 
	C47.692463,257.000000 24.384928,257.000000 1.038696,257.000000 
	C1.038696,171.786819 1.038696,86.573624 1.038696,1.000000 
	C24.019640,1.000000 47.041161,1.000000 70.531342,1.000000 
z"/>
<path fill="#000000" opacity="0.000000" stroke="none"
	d="
M186.468658,257.000000 
	C193.788086,254.313309 201.688812,251.987793 208.425797,246.851196 
	C219.897263,238.104813 227.016968,226.814835 229.693771,212.619156 
	C230.783951,206.837723 230.655548,201.045151 230.656464,195.235168 
	C230.663742,148.424118 230.701660,101.612991 230.633423,54.802040 
	C230.617584,43.937550 227.781174,33.691921 221.595657,24.753679 
	C213.246231,12.688524 201.810226,4.831094 187.161591,1.350168 
	C210.307602,1.000000 233.615189,1.000000 256.961395,1.000000 
	C256.961395,86.213463 256.961395,171.426956 256.961395,257.000000 
	C233.647003,257.000000 210.292160,257.000000 186.468658,257.000000 
z"/>
<path fill="#000000" opacity="1.000000" stroke="none"
	d="
M192.955078,217.577240 
	C190.585953,217.923111 188.608459,218.271072 186.630692,218.272522 
	C148.312027,218.300537 109.993340,218.293091 71.674652,218.280365 
	C61.978809,218.277145 58.866470,215.181107 58.861996,205.369827 
	C58.840508,158.221191 58.843349,111.072563 58.861603,63.923931 
	C58.865261,54.477146 61.983868,51.238922 71.366386,51.073574 
	C78.027756,50.956173 84.695053,51.002663 91.356300,51.140606 
	C93.865273,51.192558 96.870689,51.488792 96.618065,54.974789 
	C96.397720,58.015301 93.603043,58.126743 91.234848,58.148891 
	C84.904457,58.208115 78.562523,58.408981 72.245872,58.112537 
	C67.421509,57.886135 65.802910,59.799995 65.828758,64.501991 
	C65.967041,89.658279 65.985405,114.816010 65.883781,139.972580 
	C65.794952,161.959106 66.351639,183.949402 65.532036,205.932678 
	C65.390091,209.739838 66.972183,211.713684 71.163719,211.704803 
	C109.648834,211.623306 148.134354,211.604279 186.619232,211.728668 
	C191.361786,211.744003 192.105591,209.355560 192.099365,205.485626 
	C192.052399,176.336136 192.051163,147.186417 192.116409,118.036957 
	C192.152557,101.881828 192.358170,85.727119 192.448563,69.572014 
	C192.460663,67.411728 192.147919,65.249855 192.154602,63.089249 
	C192.165741,59.491699 190.464523,58.091072 186.893692,58.154312 
	C178.899231,58.295879 170.899857,58.270081 162.904144,58.174202 
	C159.951279,58.138790 158.333466,58.843006 158.123642,62.265965 
	C157.835876,66.960274 154.989700,69.358063 150.163147,69.345779 
	C136.168610,69.310150 122.173645,69.382645 108.179459,69.304405 
	C102.525742,69.272797 99.971100,66.741798 99.782761,61.050091 
	C99.591690,55.275745 100.545448,50.907883 105.290421,45.785751 
	C110.780617,39.859154 116.036461,39.740543 122.409477,39.710182 
	C129.073441,39.678429 135.738190,39.752312 142.401596,39.684669 
	C146.212585,39.645985 148.749237,41.117180 151.084106,44.358921 
	C153.832199,48.174355 157.562439,51.172745 162.954681,51.066757 
	C170.947983,50.909641 178.952988,50.881012 186.942673,51.129704 
	C196.108414,51.414997 199.128677,54.606579 199.136597,63.798054 
	C199.177521,111.279816 199.158432,158.761627 199.154343,206.243423 
	C199.153931,210.964005 198.281219,215.251953 192.955078,217.577240 
M151.620178,56.003632 
	C151.191437,52.088116 145.988098,52.712112 145.127731,49.126926 
	C144.556290,46.745762 142.665833,46.334801 140.479355,46.354778 
	C134.502777,46.409393 128.525116,46.330841 122.548203,46.363266 
	C118.199196,46.386860 113.328766,45.176628 111.406845,51.124550 
	C111.161140,51.884926 109.949043,52.493477 109.056206,52.856609 
	C105.133270,54.452145 106.163727,57.795597 106.602562,60.547131 
	C107.082405,63.555737 109.948708,62.684910 111.946335,62.697617 
	C123.236038,62.769463 134.530731,62.545418 145.814621,62.809914 
	C150.421204,62.917892 152.342239,61.379044 151.620178,56.003632 
z"/>
<path fill="#000000" opacity="1.000000" stroke="none"
	d="
M158.704651,130.677124 
	C161.409927,130.821793 163.287064,131.706070 162.918137,134.237000 
	C162.580658,136.552185 160.519409,137.399368 158.379089,137.239914 
	C152.644775,136.812729 153.185577,138.306305 153.068893,147.238846 
	C153.005112,152.121445 155.965118,152.030746 159.294266,151.920090 
	C160.290283,151.886978 161.293884,151.839447 162.284164,151.919891 
	C165.846344,152.209305 168.106049,151.250214 167.747589,147.025436 
	C167.535461,144.525208 168.254974,142.021606 171.352081,142.199875 
	C174.150986,142.360962 174.267715,144.827316 174.360809,147.099472 
	C174.753754,156.688019 172.602829,158.986725 163.053345,159.032471 
	C162.887177,159.033264 162.719482,159.046967 162.555069,159.029938 
	C157.447052,158.501099 150.935028,161.113861 147.809250,155.647034 
	C144.138062,149.226349 145.253860,141.615799 147.139465,134.760590 
	C148.635635,129.321228 154.072723,130.844421 158.704651,130.677124 
z"/>
<path fill="#000000" opacity="1.000000" stroke="none" 
	d="
M160.981522,113.326584 
	C146.950409,113.316666 145.970413,112.319275 146.009720,98.503738 
	C146.014435,96.843208 145.999634,95.172440 146.168488,93.524300 
	C146.916061,86.227531 153.311462,82.481384 160.264893,85.196007 
	C161.793289,85.792686 162.924591,86.811188 162.935013,88.446999 
	C162.947556,90.414314 161.480453,91.237549 159.746796,91.724098 
	C157.640839,92.315132 154.510086,90.869743 153.595947,93.741684 
	C152.485947,97.229027 152.968018,100.988434 153.339172,104.622452 
	C153.507126,106.266953 154.881165,106.621346 156.308670,106.639511 
	C158.302704,106.664902 160.307068,106.540497 162.289108,106.700996 
	C165.884933,106.992195 168.101807,106.054863 167.757721,101.836494 
	C167.554855,99.349388 168.221329,96.859688 171.334930,96.960999 
	C174.272049,97.056572 174.242783,99.582397 174.339905,101.797752 
	C174.778870,111.810265 173.096451,113.325195 160.981522,113.326584 
z"/>
<path fill="#000000" opacity="1.000000" stroke="none" 
	d="
M146.156616,197.297180 
	C146.051620,192.042450 145.548859,187.187531 146.432037,182.407516 
	C147.511581,176.564743 156.499939,173.142075 161.266190,176.657379 
	C162.416672,177.505920 163.119568,178.636703 162.707336,180.101593 
	C162.222916,181.822952 160.799744,182.144974 159.215851,182.367447 
	C157.216309,182.648300 154.188568,181.345337 153.545563,184.104248 
	C152.607986,188.127106 152.336792,192.507645 153.821701,196.408630 
	C154.705399,198.730179 157.706268,197.456345 159.769516,197.641617 
	C164.432465,198.060333 168.614304,197.934326 167.859924,191.243088 
	C167.647003,189.354370 168.715561,187.540741 171.074097,187.616867 
	C173.322876,187.689453 174.040176,189.283844 174.319565,191.323685 
	C175.681824,201.269516 172.997223,204.331894 162.798431,204.327652 
	C160.132065,204.326538 157.465332,204.283554 154.799423,204.315262 
	C150.195282,204.370026 147.117264,202.479660 146.156616,197.297180 
z"/>
<path fill="#000000" opacity="1.000000" stroke="none" 
	d="
M106.999863,91.419548 
	C99.001297,91.418510 91.502739,91.420258 84.004173,91.413567 
	C81.742508,91.411545 79.284492,91.249954 79.176262,88.355766 
	C79.068764,85.480934 81.521339,84.928558 83.755753,84.918030 
	C99.085533,84.845825 114.415825,84.839134 129.745743,84.881752 
	C132.214371,84.888618 134.760284,85.556458 134.533752,88.666237 
	C134.317032,91.640984 131.654266,91.398682 129.495712,91.406784 
	C122.163857,91.434296 114.831833,91.418404 106.999863,91.419548 
z"/>
<path fill="#000000" opacity="1.000000" stroke="none" 
	d="
M82.442627,182.312042 
	C79.925652,181.832901 78.533844,180.689514 79.123993,178.462082 
	C79.748070,176.106583 81.845085,175.786728 83.932594,175.785263 
	C96.908485,175.776184 109.884377,175.781281 122.860268,175.783966 
	C125.189209,175.784439 127.519806,175.743225 129.846619,175.816727 
	C132.122574,175.888611 134.449890,176.297012 134.453995,179.190948 
	C134.458252,182.188354 132.072861,182.370255 129.807190,182.370163 
	C114.169685,182.369568 98.532173,182.357056 82.442627,182.312042 
z"/>
<path fill="#000000" opacity="1.000000" stroke="none" 
	d="
M102.000092,137.287323 
	C95.834717,137.287567 90.169296,137.291138 84.503883,137.285370 
	C82.043129,137.282867 79.405251,136.960327 79.214783,133.983856 
	C79.001633,130.653091 81.814667,130.680389 84.196571,130.677994 
	C99.359947,130.662674 114.523346,130.665314 129.686737,130.670197 
	C131.921677,130.670914 134.430344,130.703888 134.465683,133.701996 
	C134.502823,136.852692 131.961060,137.246735 129.494125,137.255829 
	C120.496193,137.289047 111.498085,137.279999 102.000092,137.287323 
z"/>
<path fill="#000000" opacity="1.000000" stroke="none" 
	d="
M79.718689,195.379883 
	C78.134972,191.845093 80.150887,190.571533 82.688477,190.395309 
	C91.623825,189.774796 100.579590,189.752274 109.519150,190.420944 
	C111.242775,190.549881 112.820305,191.314133 113.024887,193.336548 
	C113.204758,195.114761 112.020256,196.453369 110.503487,196.516815 
	C100.315926,196.942856 90.084579,198.379990 79.718689,195.379883 
z"/>
<path fill="#000000" opacity="1.000000" stroke="none" 
	d="
M96.996170,151.372559 
	C92.024490,151.354431 87.551048,151.354401 83.078041,151.310135 
	C80.810066,151.287689 79.048828,150.348312 79.120186,147.874039 
	C79.184570,145.641403 81.003815,144.822128 82.960587,144.809372 
	C91.575134,144.753174 100.190720,144.758591 108.805069,144.836792 
	C110.900833,144.855804 113.009422,145.546371 113.024559,148.071579 
	C113.042053,150.990463 110.696739,151.311508 108.429382,151.338547 
	C104.784828,151.382034 101.139557,151.364243 96.996170,151.372559 
z"/>
<path fill="#000000" opacity="1.000000" stroke="none" 
	d="
M91.203339,99.562866 
	C97.325111,99.579193 102.973770,99.580826 108.622177,99.618515 
	C110.738998,99.632645 112.892075,100.036369 112.989830,102.617249 
	C113.085762,105.150055 110.963760,106.009071 108.897758,106.038422 
	C100.427719,106.158722 91.954430,106.160027 83.483910,106.064713 
	C81.179588,106.038788 78.980354,105.098915 79.204834,102.312164 
	C79.414238,99.712563 81.678093,99.553665 83.752510,99.543777 
	C86.078300,99.532684 88.404243,99.554825 91.203339,99.562866 
z"/>
<path fill="#000000" opacity="1.000000" stroke="none" 
	d="
M179.564560,175.273285 
	C174.596527,181.136093 169.474976,186.346024 164.053070,191.255463 
	C162.429504,192.725586 160.528168,194.330414 158.402237,192.303864 
	C156.116272,190.124756 157.459534,188.099884 159.250946,186.311417 
	C163.955566,181.614502 168.662720,176.920120 173.369827,172.225693 
	C174.746002,170.853241 176.326111,169.907394 178.276520,170.796814 
	C180.076889,171.617828 180.511612,173.123978 179.564560,175.273285 
z"/>
<path fill="#000000" opacity="1.000000" stroke="none" 
	d="
M177.324432,87.185883 
	C172.714554,91.769409 168.392548,96.123955 163.983810,100.388863 
	C162.380585,101.939781 160.421738,103.332390 158.367538,101.239136 
	C156.391891,99.225914 157.530518,97.206566 159.129364,95.564522 
	C163.523621,91.051544 167.979004,86.597557 172.444839,82.155037 
	C174.357391,80.252464 176.568344,77.964943 179.183777,80.581558 
	C181.679184,83.078094 179.092850,85.033073 177.324432,87.185883 
z"/>
<path fill="#000000" opacity="1.000000" stroke="none"
	d="
M170.924835,138.923538 
	C168.182022,141.622467 165.731262,144.116516 163.173996,146.496094 
	C161.719315,147.849686 159.961334,148.528824 158.313629,146.853912 
	C156.748947,145.263382 157.051697,143.420731 158.488983,141.948227 
	C163.717880,136.591263 168.991150,131.275848 174.338272,126.037216 
	C175.771683,124.632889 177.578888,124.216499 179.191589,125.927582 
	C180.798660,127.632706 180.200409,129.362106 178.848877,130.815674 
	C176.356689,133.496017 173.738159,136.058884 170.924835,138.923538 
z"/>
</svg>