<svg version="1.1" id="Layer_1" xmlns="http://www.w3.org/2000/svg" xmlns:xlink="http://www.w3.org/1999/xlink" x="0px" y="0px"
	 width="1150%" height="1000%" viewBox="0 0 757 421" enable-background="new 0 0 757 421" xml:space="preserve">
<path fill="#FFFFFF" opacity="1.000000" stroke="none" 
	d="
M512.000000,422.000000 
	C341.333344,422.000000 171.166672,422.000000 1.000000,422.000000 
	C1.000000,281.666656 1.000000,141.333328 1.000000,1.000000 
	C253.333328,1.000000 505.666656,1.000000 758.000000,1.000000 
	C758.000000,141.333328 758.000000,281.666656 758.000000,422.000000 
	C676.166687,422.000000 594.333313,422.000000 512.000000,422.000000 
M385.453308,259.896149 
	C396.646057,260.070801 407.210876,257.756348 417.079407,252.294922 
	C422.348907,249.378677 425.222687,245.426651 425.183685,239.137192 
	C425.037994,215.642319 425.027435,192.145309 425.190460,168.650665 
	C425.234344,162.328369 422.501190,158.269775 416.984467,155.705261 
	C411.708984,153.252914 406.636047,150.174438 401.136322,148.445709 
	C394.988159,146.513123 393.637024,142.934860 393.991852,137.002411 
	C394.507416,128.381363 391.871674,126.114227 383.191559,126.097931 
	C374.178131,126.081009 371.878876,128.324615 371.874603,137.141525 
	C371.873962,138.474625 371.721283,139.829239 371.904999,141.136520 
	C372.346008,144.274643 370.990448,145.933960 368.123627,147.168411 
	C361.865997,149.862930 355.792664,152.982117 349.570618,155.763565 
	C343.734528,158.372437 341.040253,162.709839 341.064087,169.109314 
	C341.150330,192.271500 341.103699,215.434219 341.094238,238.596725 
	C341.091705,244.838730 343.881744,249.123657 349.375793,252.248566 
	C360.339233,258.484344 372.139801,260.255737 385.453308,259.896149 
M500.729645,189.876984 
	C492.531128,177.200699 479.310883,171.998718 465.486633,176.048004 
	C454.420654,179.289368 443.651123,190.944504 444.426788,206.365204 
	C445.061340,218.981232 444.545837,231.654617 444.570221,244.302521 
	C444.572937,245.711044 444.772156,247.119171 444.961456,249.586075 
	C447.960144,248.186172 451.051208,247.699402 452.409637,245.902664 
	C454.950684,242.541687 456.487030,238.421066 458.755737,234.004440 
	C462.868896,234.004440 468.041229,233.666031 473.156189,234.064362 
	C492.964844,235.606949 512.690063,214.565994 500.729645,189.876984 
M66.400398,207.141861 
	C68.210793,220.831711 76.688202,231.570770 89.962059,233.253754 
	C101.831192,234.758652 114.041794,233.570297 126.075050,233.570297 
	C126.075050,222.344803 126.217766,211.368927 125.974304,200.401642 
	C125.913750,197.673889 124.954384,194.815811 123.810959,192.287735 
	C118.045540,179.540573 103.591843,172.437759 89.924667,175.425415 
	C75.370865,178.606903 66.254066,190.467224 66.400398,207.141861 
M623.246887,197.918457 
	C621.222046,216.896652 630.604553,231.605316 647.453918,233.478409 
	C658.912231,234.752197 670.626709,233.721848 682.722656,233.721848 
	C682.722656,224.215607 682.729919,214.929184 682.721069,205.642761 
	C682.706055,189.833435 672.336548,177.267746 657.498840,175.064209 
	C642.012512,172.764359 627.985046,181.883942 623.246887,197.918457 
M311.481995,234.005600 
	C315.245361,234.005600 319.008759,234.005600 323.005554,234.005600 
	C323.005554,224.059509 322.848694,214.751083 323.048431,205.450302 
	C323.260406,195.579422 319.462006,187.766312 311.958435,181.503616 
	C303.063904,174.080032 288.924011,172.595764 278.701752,178.171936 
	C267.575806,184.241074 261.544159,196.059326 263.139984,208.663223 
	C264.623413,220.379211 273.692719,230.951996 285.653351,232.947525 
	C293.764801,234.300858 302.198792,233.720917 311.481995,234.005600 
M132.874832,197.524063 
	C130.055405,209.770233 133.456924,220.090317 143.373596,227.653931 
	C155.499756,236.902740 168.191925,236.090546 179.601578,228.673172 
	C183.882965,231.008530 187.432861,232.944901 191.822723,235.339417 
	C191.822723,219.879837 191.822723,206.098526 191.822723,192.321594 
	C184.066086,192.091354 179.872406,196.562683 179.158264,205.654083 
	C178.540558,213.518234 173.030746,220.185104 165.808487,221.807373 
	C158.423172,223.466263 150.505081,219.811249 146.760513,213.014786 
	C143.033920,206.250931 144.465652,197.668777 149.935608,191.913940 
	C154.572205,187.035873 160.368774,186.740616 166.483231,186.794266 
	C174.376144,186.863541 178.733078,182.782623 179.116898,174.909439 
	C173.481918,174.909439 167.856873,174.895615 162.231934,174.912140 
	C147.956100,174.954071 137.159515,183.000366 132.874832,197.524063 
M210.002731,201.303116 
	C210.001022,196.303635 210.132950,191.299637 209.964478,186.305771 
	C209.743713,179.761688 204.321671,174.950745 197.888596,175.403381 
	C197.888596,186.531830 197.349762,197.703720 198.144913,208.779861 
	C198.478622,213.428375 200.840469,218.459915 203.665115,222.298203 
	C211.048111,232.330627 221.516464,235.826309 233.635849,233.396759 
	C245.876434,230.942932 254.639587,223.241013 256.457642,211.208405 
	C258.224304,199.516006 256.841156,187.347672 256.841156,175.371506 
	C250.608826,174.894852 245.141571,179.651749 244.951523,186.174820 
	C244.781738,192.002655 244.998810,197.840881 244.889069,203.671570 
	C244.738449,211.675186 240.200363,218.421539 233.548416,220.952850 
	C222.192261,225.274246 208.855438,216.420166 210.002731,201.303116 
M549.143372,218.835220 
	C536.416870,226.586487 522.342896,219.180099 521.760864,204.323029 
	C521.532837,198.500900 521.884277,192.656509 521.670959,186.833282 
	C521.404602,179.561707 515.845947,174.637100 509.009674,175.546158 
	C509.009674,185.659637 508.638428,195.824631 509.096527,205.952103 
	C509.786133,221.198105 522.258362,233.457870 536.953308,234.003296 
	C553.432800,234.614944 567.050964,224.282364 568.576294,208.564209 
	C569.646667,197.534470 568.783020,186.317017 568.783020,175.180176 
	C561.378174,175.404755 556.720703,179.870438 556.576416,186.896790 
	C556.470459,192.059158 556.536621,197.225525 556.558533,202.389969 
	C556.585327,208.705704 554.557617,214.125137 549.143372,218.835220 
M582.093018,231.741302 
	C585.690857,228.802048 587.265930,225.037186 587.129517,220.373947 
	C586.973999,215.052078 586.399963,209.599823 587.309692,204.433487 
	C588.070068,200.115097 590.080933,195.677002 592.655579,192.095291 
	C596.826904,186.292206 603.542114,186.664825 609.941895,186.680695 
	C617.336182,186.699051 621.921570,182.032059 621.515137,174.997879 
	C614.559875,174.997879 607.567444,174.654419 600.621155,175.074158 
	C588.644592,175.797882 576.117859,186.946487 575.207275,198.764160 
	C574.318054,210.304901 575.013855,221.967789 575.013855,234.463348 
	C577.303772,233.628677 579.370178,232.875504 582.093018,231.741302 
z"/>
<path fill="#33AFE3" opacity="1.000000" stroke="none" 
	d="
M384.963013,259.881927 
	C372.139801,260.255737 360.339233,258.484344 349.375793,252.248566 
	C343.881744,249.123657 341.091705,244.838730 341.094238,238.596725 
	C341.103699,215.434219 341.150330,192.271500 341.064087,169.109314 
	C341.040253,162.709839 343.734528,158.372437 349.570618,155.763565 
	C355.792664,152.982117 361.865997,149.862930 368.123627,147.168411 
	C370.990448,145.933960 372.346008,144.274643 371.904999,141.136520 
	C371.721283,139.829239 371.873962,138.474625 371.874603,137.141525 
	C371.878876,128.324615 374.178131,126.081009 383.191559,126.097931 
	C391.871674,126.114227 394.507416,128.381363 393.991852,137.002411 
	C393.637024,142.934860 394.988159,146.513123 401.136322,148.445709 
	C406.636047,150.174438 411.708984,153.252914 416.984467,155.705261 
	C422.501190,158.269775 425.234344,162.328369 425.190460,168.650665 
	C425.027435,192.145309 425.037994,215.642319 425.183685,239.137192 
	C425.222687,245.426651 422.348907,249.378677 417.079407,252.294922 
	C407.210876,257.756348 396.646057,260.070801 384.963013,259.881927 
M353.211792,211.468185 
	C353.739319,210.347946 354.266876,209.227722 355.028931,208.836136 
	C357.425415,215.508896 359.474274,222.334656 362.323334,228.808243 
	C364.808105,234.454117 367.737671,234.420074 371.000000,229.042435 
	C372.700195,226.239792 373.567352,222.924835 375.316681,220.161530 
	C376.382355,218.478149 378.411072,217.404388 380.019806,216.529312 
	C380.273193,216.698883 380.526581,216.868439 380.779968,217.038010 
	C380.552795,216.707535 380.325623,216.377075 380.271027,215.115784 
	C380.350037,201.141174 380.429077,187.166580 381.117706,173.188599 
	C382.711731,173.147369 384.305786,173.106140 385.992279,173.989975 
	C385.992279,190.005280 385.992279,206.020584 385.992279,222.842545 
	C388.673981,217.267029 390.717224,212.412766 393.374268,207.921646 
	C394.037231,206.801056 396.679413,206.851410 398.411896,206.363571 
	C398.178345,207.999786 398.401978,209.910141 397.618591,211.216675 
	C395.840607,214.181915 393.255707,216.676132 391.575867,219.684097 
	C389.593811,223.233200 391.318878,225.837646 395.393494,226.082291 
	C400.230225,226.372681 402.452942,222.977051 404.373596,219.399384 
	C406.330872,215.753479 407.886627,211.884674 409.961609,208.312958 
	C410.782654,206.899628 412.529938,206.024384 414.241364,204.578049 
	C414.931702,209.473587 415.460754,213.225296 416.119476,217.896622 
	C423.038940,213.366455 420.157043,208.061859 420.621643,205.046860 
	C418.437408,202.850494 415.921906,201.234436 416.157898,200.367020 
	C416.640198,198.594421 418.602142,197.224380 420.881195,194.636398 
	C420.881195,187.577301 420.699280,178.928864 420.949432,170.292923 
	C421.099457,165.113831 419.051636,161.799728 414.404358,159.710983 
	C405.846527,155.864670 397.353363,151.874542 389.878906,148.426697 
	C389.878906,143.978607 389.820679,139.871201 389.893250,135.766083 
	C389.989746,130.307022 386.149780,130.974579 382.623444,130.865601 
	C378.876282,130.749786 375.851990,131.269424 376.114990,136.075089 
	C376.339600,140.178696 376.521667,144.284637 376.718323,148.302811 
	C368.724152,152.032150 360.234192,155.746872 352.010956,159.979721 
	C349.563477,161.239532 347.864380,163.953278 345.535828,166.177383 
	C345.478424,166.272858 345.350281,166.401077 345.376556,166.457855 
	C345.464905,166.648941 345.608307,166.814606 345.858185,167.919922 
	C345.924927,175.934067 345.991669,183.948212 345.482605,192.426636 
	C345.611603,194.264343 345.740601,196.102036 345.888306,198.877106 
	C346.575714,204.526245 347.159576,210.191910 348.055115,215.807861 
	C348.200104,216.717163 349.729065,217.405762 350.618347,218.196365 
	C351.439606,217.141068 352.484253,216.183746 353.005005,214.996628 
	C353.362335,214.182083 352.991516,213.048111 353.211792,211.468185 
M404.795929,227.470367 
	C404.597565,228.978745 404.399200,230.487122 403.400085,231.715790 
	C397.349487,230.268768 391.803314,230.549911 386.598297,234.791214 
	C377.347778,242.328979 369.452026,241.756073 360.977570,233.516830 
	C360.391785,232.947311 359.695160,232.491806 359.000397,232.001816 
	C359.000397,232.001816 359.018311,231.951660 358.952240,231.249908 
	C358.122162,229.830795 357.574036,228.082336 356.393921,227.072189 
	C354.751404,225.666214 352.199432,223.554703 350.828674,224.029861 
	C348.956146,224.678955 347.152802,227.269745 346.502380,229.390793 
	C344.108704,237.197403 347.202087,244.045563 354.456512,247.702057 
	C371.618073,256.352112 389.370178,255.455673 407.134430,250.244934 
	C413.262207,248.447495 418.460449,244.984924 420.272278,237.853043 
	C421.367462,233.542206 420.576660,230.903976 416.215942,230.047104 
	C412.531555,229.323181 411.433411,226.810120 411.035400,223.688889 
	C410.819153,221.992935 410.996857,220.246765 410.996857,218.523239 
	C410.309540,218.359253 409.622223,218.195251 408.934875,218.031250 
	C407.691864,221.337265 406.448822,224.643295 404.795929,227.470367 
M377.689087,234.221237 
	C378.552734,233.865326 380.132080,233.564713 380.164520,233.144608 
	C380.385223,230.287170 380.279999,227.404556 380.279999,224.530075 
	C379.696381,224.478577 379.112762,224.427078 378.529144,224.375580 
	C378.076080,227.465225 377.623047,230.554871 377.689087,234.221237 
z"/>
<path fill="#02AA9F" opacity="1.000000" stroke="none" 
	d="
M500.906921,190.203812 
	C512.690063,214.565994 492.964844,235.606949 473.156189,234.064362 
	C468.041229,233.666031 462.868896,234.004440 458.755737,234.004440 
	C456.487030,238.421066 454.950684,242.541687 452.409637,245.902664 
	C451.051208,247.699402 447.960144,248.186172 444.961456,249.586075 
	C444.772156,247.119171 444.572937,245.711044 444.570221,244.302521 
	C444.545837,231.654617 445.061340,218.981232 444.426788,206.365204 
	C443.651123,190.944504 454.420654,179.289368 465.486633,176.048004 
	C479.310883,171.998718 492.531128,177.200699 500.906921,190.203812 
M472.777435,186.922958 
	C464.535919,188.186111 458.339081,193.511505 457.445160,201.547638 
	C456.700287,208.243729 457.292480,215.088547 457.292480,222.673798 
	C464.983002,222.222870 472.575775,222.652786 479.750458,221.122452 
	C487.668793,219.433533 492.777740,210.362228 491.733185,202.607559 
	C490.475769,193.272659 483.765503,187.394669 472.777435,186.922958 
z"/>
<path fill="#0373BD" opacity="1.000000" stroke="none" 
	d="
M66.299606,206.716492 
	C66.254066,190.467224 75.370865,178.606903 89.924667,175.425415 
	C103.591843,172.437759 118.045540,179.540573 123.810959,192.287735 
	C124.954384,194.815811 125.913750,197.673889 125.974304,200.401642 
	C126.217766,211.368927 126.075050,222.344803 126.075050,233.570297 
	C114.041794,233.570297 101.831192,234.758652 89.962059,233.253754 
	C76.688202,231.570770 68.210793,220.831711 66.299606,206.716492 
M82.862518,193.459396 
	C74.049835,204.901779 81.105148,219.612411 92.689636,221.648560 
	C99.405579,222.828979 106.498756,221.863113 113.622398,221.863113 
	C113.622398,215.424408 114.028099,209.132233 113.518700,202.915009 
	C112.895721,195.311615 108.625999,189.787827 101.304436,187.545288 
	C94.407066,185.432678 88.192261,187.289597 82.862518,193.459396 
z"/>
<path fill="#04AAA0" opacity="1.000000" stroke="none" 
	d="
M623.387573,197.533905 
	C627.985046,181.883942 642.012512,172.764359 657.498840,175.064209 
	C672.336548,177.267746 682.706055,189.833435 682.721069,205.642761 
	C682.729919,214.929184 682.722656,224.215607 682.722656,233.721848 
	C670.626709,233.721848 658.912231,234.752197 647.453918,233.478409 
	C630.604553,231.605316 621.222046,216.896652 623.387573,197.533905 
M655.921631,187.052536 
	C653.935852,187.033264 651.921814,186.789169 649.969177,187.034027 
	C641.917419,188.043701 635.073853,196.183121 635.099487,204.538269 
	C635.124695,212.759308 641.768066,221.117661 649.593506,221.770737 
	C656.169434,222.319519 662.827515,221.883545 669.996643,221.883545 
	C669.996643,216.771439 670.004700,211.652328 669.994934,206.533249 
	C669.975647,196.418808 666.162903,190.854141 655.921631,187.052536 
z"/>
<path fill="#0373BD" opacity="1.000000" stroke="none" 
	d="
M310.985260,234.005600 
	C302.198792,233.720917 293.764801,234.300858 285.653351,232.947525 
	C273.692719,230.951996 264.623413,220.379211 263.139984,208.663223 
	C261.544159,196.059326 267.575806,184.241074 278.701752,178.171936 
	C288.924011,172.595764 303.063904,174.080032 311.958435,181.503616 
	C319.462006,187.766312 323.260406,195.579422 323.048431,205.450302 
	C322.848694,214.751083 323.005554,224.059509 323.005554,234.005600 
	C319.008759,234.005600 315.245361,234.005600 310.985260,234.005600 
M304.431030,222.169159 
	C306.201447,222.169159 307.971863,222.169159 310.160919,222.169159 
	C310.160919,215.520142 310.326263,209.412781 310.122284,203.317795 
	C309.814056,194.107819 302.066437,186.802994 292.934845,186.834030 
	C283.553833,186.865921 275.595459,194.760864 275.358887,204.269897 
	C275.137634,213.163055 282.600647,221.430420 291.509674,221.970261 
	C295.479340,222.210815 299.469513,222.113312 304.431030,222.169159 
z"/>
<path fill="#0372BD" opacity="1.000000" stroke="none" 
	d="
M132.927948,197.109131 
	C137.159515,183.000366 147.956100,174.954071 162.231934,174.912140 
	C167.856873,174.895615 173.481918,174.909439 179.116898,174.909439 
	C178.733078,182.782623 174.376144,186.863541 166.483231,186.794266 
	C160.368774,186.740616 154.572205,187.035873 149.935608,191.913940 
	C144.465652,197.668777 143.033920,206.250931 146.760513,213.014786 
	C150.505081,219.811249 158.423172,223.466263 165.808487,221.807373 
	C173.030746,220.185104 178.540558,213.518234 179.158264,205.654083 
	C179.872406,196.562683 184.066086,192.091354 191.822723,192.321594 
	C191.822723,206.098526 191.822723,219.879837 191.822723,235.339417 
	C187.432861,232.944901 183.882965,231.008530 179.601578,228.673172 
	C168.191925,236.090546 155.499756,236.902740 143.373596,227.653931 
	C133.456924,220.090317 130.055405,209.770233 132.927948,197.109131 
z"/>
<path fill="#0272BC" opacity="1.000000" stroke="none" 
	d="
M210.002762,201.773224 
	C208.855438,216.420166 222.192261,225.274246 233.548416,220.952850 
	C240.200363,218.421539 244.738449,211.675186 244.889069,203.671570 
	C244.998810,197.840881 244.781738,192.002655 244.951523,186.174820 
	C245.141571,179.651749 250.608826,174.894852 256.841156,175.371506 
	C256.841156,187.347672 258.224304,199.516006 256.457642,211.208405 
	C254.639587,223.241013 245.876434,230.942932 233.635849,233.396759 
	C221.516464,235.826309 211.048111,232.330627 203.665115,222.298203 
	C200.840469,218.459915 198.478622,213.428375 198.144913,208.779861 
	C197.349762,197.703720 197.888596,186.531830 197.888596,175.403381 
	C204.321671,174.950745 209.743713,179.761688 209.964478,186.305771 
	C210.132950,191.299637 210.001022,196.303635 210.002762,201.773224 
z"/>
<path fill="#02AA9F" opacity="1.000000" stroke="none" 
	d="
M549.426514,218.588013 
	C554.557617,214.125137 556.585327,208.705704 556.558533,202.389969 
	C556.536621,197.225525 556.470459,192.059158 556.576416,186.896790 
	C556.720703,179.870438 561.378174,175.404755 568.783020,175.180176 
	C568.783020,186.317017 569.646667,197.534470 568.576294,208.564209 
	C567.050964,224.282364 553.432800,234.614944 536.953308,234.003296 
	C522.258362,233.457870 509.786133,221.198105 509.096527,205.952103 
	C508.638428,195.824631 509.009674,185.659637 509.009674,175.546158 
	C515.845947,174.637100 521.404602,179.561707 521.670959,186.833282 
	C521.884277,192.656509 521.532837,198.500900 521.760864,204.323029 
	C522.342896,219.180099 536.416870,226.586487 549.426514,218.588013 
z"/>
<path fill="#02AA9F" opacity="1.000000" stroke="none" 
	d="
M581.764771,231.931808 
	C579.370178,232.875504 577.303772,233.628677 575.013855,234.463348 
	C575.013855,221.967789 574.318054,210.304901 575.207275,198.764160 
	C576.117859,186.946487 588.644592,175.797882 600.621155,175.074158 
	C607.567444,174.654419 614.559875,174.997879 621.515137,174.997879 
	C621.921570,182.032059 617.336182,186.699051 609.941895,186.680695 
	C603.542114,186.664825 596.826904,186.292206 592.655579,192.095291 
	C590.080933,195.677002 588.070068,200.115097 587.309692,204.433487 
	C586.399963,209.599823 586.973999,215.052078 587.129517,220.373947 
	C587.265930,225.037186 585.690857,228.802048 581.764771,231.931808 
z"/>
<path fill="#FCFEFE" opacity="1.000000" stroke="none" 
	d="
M380.508118,173.191971 
	C380.429077,187.166580 380.350037,201.141174 380.158325,215.552612 
	C380.045654,215.989456 380.007202,216.056824 380.007202,216.056824 
	C378.411072,217.404388 376.382355,218.478149 375.316681,220.161530 
	C373.567352,222.924835 372.700195,226.239792 371.000000,229.042435 
	C367.737671,234.420074 364.808105,234.454117 362.323334,228.808243 
	C359.474274,222.334656 357.425415,215.508896 354.910034,208.097855 
	C354.298553,205.439606 353.805908,203.519653 353.278687,201.202362 
	C352.776367,198.568878 352.450287,196.291031 351.807098,194.106522 
	C350.887817,190.984329 349.097626,189.661621 346.058411,191.962357 
	C345.991669,183.948212 345.924927,175.934067 345.867249,167.212280 
	C345.858307,166.336716 345.840363,166.168777 345.822388,166.000839 
	C347.864380,163.953278 349.563477,161.239532 352.010956,159.979721 
	C360.234192,155.746872 368.724152,152.032150 376.718323,148.302811 
	C376.521667,144.284637 376.339600,140.178696 376.114990,136.075089 
	C375.851990,131.269424 378.876282,130.749786 382.623444,130.865601 
	C386.149780,130.974579 389.989746,130.307022 389.893250,135.766083 
	C389.820679,139.871201 389.878906,143.978607 389.878906,148.426697 
	C397.353363,151.874542 405.846527,155.864670 414.404358,159.710983 
	C419.051636,161.799728 421.099457,165.113831 420.949432,170.292923 
	C420.699280,178.928864 420.881195,187.577301 420.881195,194.636398 
	C418.602142,197.224380 416.640198,198.594421 416.157898,200.367020 
	C415.921906,201.234436 418.437408,202.850494 420.621643,205.046860 
	C420.157043,208.061859 423.038940,213.366455 416.119476,217.896622 
	C415.460754,213.225296 414.931702,209.473587 414.241364,204.578049 
	C412.529938,206.024384 410.782654,206.899628 409.961609,208.312958 
	C407.886627,211.884674 406.330872,215.753479 404.373596,219.399384 
	C402.452942,222.977051 400.230225,226.372681 395.393494,226.082291 
	C391.318878,225.837646 389.593811,223.233200 391.575867,219.684097 
	C393.255707,216.676132 395.840607,214.181915 397.618591,211.216675 
	C398.401978,209.910141 398.178345,207.999786 398.411896,206.363571 
	C396.679413,206.851410 394.037231,206.801056 393.374268,207.921646 
	C390.717224,212.412766 388.673981,217.267029 385.992279,222.842545 
	C385.992279,206.020584 385.992279,190.005280 386.003967,173.075500 
	C385.976471,169.440735 385.937256,166.720444 385.953003,163.537827 
	C386.002533,160.426956 385.771301,157.754745 386.045929,155.135590 
	C386.434509,151.429733 385.267853,149.159241 380.968933,148.695267 
	C380.968933,153.148834 380.968933,157.566376 380.889648,162.389191 
	C380.709656,166.260284 380.608887,169.726120 380.508118,173.191971 
M372.208191,210.227798 
	C372.747528,212.723495 373.865753,213.402985 375.800018,211.340256 
	C378.069519,208.920059 377.713654,202.704330 374.789703,201.185944 
	C373.310028,200.417557 371.020020,201.209564 369.096344,201.296082 
	C369.261169,203.057236 369.165955,204.899460 369.680939,206.551453 
	C370.032410,207.678864 371.236115,208.540588 372.208191,210.227798 
M352.358215,184.580399 
	C352.538971,181.388855 352.953827,178.178558 352.701080,175.021713 
	C352.651123,174.397644 350.033539,173.979126 348.600067,173.465805 
	C348.276489,174.901810 347.331360,176.565842 347.757294,177.726883 
	C348.675934,180.230957 350.298859,182.476639 352.358215,184.580399 
M409.604065,181.086563 
	C408.025940,181.238159 405.317902,180.970963 405.077911,181.618484 
	C404.305450,183.702698 404.443329,186.124298 404.230164,188.415771 
	C405.071014,188.640091 405.911865,188.864410 406.752686,189.088715 
	C407.816376,186.654221 408.880035,184.219711 409.604065,181.086563 
M399.986023,193.238220 
	C398.806213,195.916840 397.626434,198.595459 396.446625,201.274078 
	C397.176361,201.715729 397.906097,202.157379 398.635834,202.599045 
	C399.931915,200.952927 401.404022,199.412994 402.477600,197.632706 
	C403.706238,195.595383 404.194183,193.493317 399.986023,193.238220 
z"/>
<path fill="#5BC7EB" opacity="1.000000" stroke="none" 
	d="
M359.050079,231.983292 
	C359.695160,232.491806 360.391785,232.947311 360.977570,233.516830 
	C369.452026,241.756073 377.347778,242.328979 386.598297,234.791214 
	C391.803314,230.549911 397.349487,230.268768 403.934326,232.045532 
	C402.947083,234.173660 401.425598,235.972031 400.288696,237.315811 
	C401.800110,237.640045 403.534882,237.795761 405.092194,238.405029 
	C406.766571,239.060104 408.274414,240.140808 409.822144,241.017227 
	C409.822144,239.581268 409.822144,237.893692 409.988068,236.433975 
	C410.589294,236.667786 411.024567,236.673721 411.459869,236.679688 
	C411.100800,236.299271 410.741730,235.918854 410.398621,235.259674 
	C411.377350,234.113998 412.340179,233.247086 413.579224,232.292130 
	C414.369965,232.016434 414.884491,231.828781 415.399048,231.641129 
	C415.336212,231.427917 415.273346,231.214706 415.210510,231.001495 
	C414.439240,231.291565 413.667938,231.581635 412.533173,231.885590 
	C409.383484,231.402359 406.271973,231.478714 405.205780,227.949310 
	C406.448822,224.643295 407.691864,221.337265 408.934875,218.031250 
	C409.622223,218.195251 410.309540,218.359253 410.996857,218.523239 
	C410.996857,220.246765 410.819153,221.992935 411.035400,223.688889 
	C411.433411,226.810120 412.531555,229.323181 416.215942,230.047104 
	C420.576660,230.903976 421.367462,233.542206 420.272278,237.853043 
	C418.460449,244.984924 413.262207,248.447495 407.134430,250.244934 
	C389.370178,255.455673 371.618073,256.352112 354.456512,247.702057 
	C347.202087,244.045563 344.108704,237.197403 346.502380,229.390793 
	C347.152802,227.269745 348.956146,224.678955 350.828674,224.029861 
	C352.199432,223.554703 354.751404,225.666214 356.393921,227.072189 
	C357.574036,228.082336 358.122162,229.830795 358.632843,231.599197 
	C356.285736,231.278870 354.258026,230.609253 352.235352,229.941299 
	C349.268250,235.606003 349.268250,235.606003 355.565033,238.110977 
	C356.730804,236.061218 357.890442,234.022263 359.050079,231.983292 
z"/>
<path fill="#FDFEFE" opacity="1.000000" stroke="none" 
	d="
M352.946198,212.056931 
	C352.991516,213.048111 353.362335,214.182083 353.005005,214.996628 
	C352.484253,216.183746 351.439606,217.141068 350.618347,218.196365 
	C349.729065,217.405762 348.200104,216.717163 348.055115,215.807861 
	C347.159576,210.191910 346.575714,204.526245 346.231079,198.515717 
	C348.106079,201.411011 349.638306,204.667694 351.244629,208.245682 
	C351.861206,209.730301 352.403717,210.893616 352.946198,212.056931 
z"/>
<path fill="#F4F9FB" opacity="1.000000" stroke="none" 
	d="
M413.303040,232.380173 
	C412.340179,233.247086 411.377350,234.113998 410.259155,235.427155 
	C410.103760,235.873383 409.822144,236.206100 409.822144,236.206100 
	C409.822144,237.893692 409.822144,239.581268 409.822144,241.017227 
	C408.274414,240.140808 406.766571,239.060104 405.092194,238.405029 
	C403.534882,237.795761 401.800110,237.640045 400.288696,237.315811 
	C401.425598,235.972031 402.947083,234.173660 404.334717,232.185394 
	C404.399200,230.487122 404.597565,228.978745 405.000854,227.709839 
	C406.271973,231.478714 409.383484,231.402359 412.636322,232.011475 
	C413.102966,232.123444 413.303040,232.380173 413.303040,232.380173 
z"/>
<path fill="#71CBE8" opacity="1.000000" stroke="none" 
	d="
M385.898071,164.000168 
	C385.937256,166.720444 385.976471,169.440735 385.957733,172.612946 
	C384.305786,173.106140 382.711731,173.147369 380.812927,173.190277 
	C380.608887,169.726120 380.709656,166.260284 381.152100,162.478668 
	C382.961884,162.775314 384.429993,163.387741 385.898071,164.000168 
z"/>
<path fill="#49BCE7" opacity="1.000000" stroke="none" 
	d="
M351.170532,207.924377 
	C349.638306,204.667694 348.106079,201.411011 346.221741,198.047028 
	C345.740601,196.102036 345.611603,194.264343 345.770508,192.194489 
	C349.097626,189.661621 350.887817,190.984329 351.807098,194.106522 
	C352.450287,196.291031 352.776367,198.568878 353.074341,201.437744 
	C351.642670,199.180191 350.380707,196.289948 349.118774,193.399689 
	C348.659943,193.550064 348.201141,193.700439 347.742310,193.850800 
	C348.509125,196.249374 349.404755,198.616241 350.005035,201.055801 
	C350.558411,203.304749 350.794617,205.631760 351.170532,207.924377 
z"/>
<path fill="#5BC7EB" opacity="1.000000" stroke="none" 
	d="
M351.244629,208.245682 
	C350.794617,205.631760 350.558411,203.304749 350.005035,201.055801 
	C349.404755,198.616241 348.509125,196.249374 347.742310,193.850800 
	C348.201141,193.700439 348.659943,193.550064 349.118774,193.399689 
	C350.380707,196.289948 351.642670,199.180191 353.108948,201.835068 
	C353.805908,203.519653 354.298553,205.439606 354.792786,207.733521 
	C354.266876,209.227722 353.739319,210.347946 353.078979,211.762558 
	C352.403717,210.893616 351.861206,209.730301 351.244629,208.245682 
z"/>
<path fill="#FCFEFE" opacity="1.000000" stroke="none" 
	d="
M377.429565,233.932877 
	C377.623047,230.554871 378.076080,227.465225 378.529144,224.375580 
	C379.112762,224.427078 379.696381,224.478577 380.279999,224.530075 
	C380.279999,227.404556 380.385223,230.287170 380.164520,233.144608 
	C380.132080,233.564713 378.552734,233.865326 377.429565,233.932877 
z"/>
<path fill="#71CBE8" opacity="1.000000" stroke="none" 
	d="
M380.072052,216.018036 
	C380.325623,216.377075 380.552795,216.707535 380.779968,217.037994 
	C380.526581,216.868439 380.273193,216.698883 380.013489,216.293060 
	C380.007202,216.056824 380.045654,215.989456 380.072052,216.018036 
z"/>
<path fill="#49BCE7" opacity="1.000000" stroke="none" 
	d="
M345.679108,166.089111 
	C345.840363,166.168777 345.858307,166.336716 345.803467,166.747314 
	C345.608307,166.814606 345.464905,166.648941 345.376556,166.457855 
	C345.350281,166.401077 345.478424,166.272858 345.679108,166.089111 
z"/>
<path fill="#FDFEFE" opacity="1.000000" stroke="none" 
	d="
M473.203796,186.836334 
	C483.765503,187.394669 490.475769,193.272659 491.733185,202.607559 
	C492.777740,210.362228 487.668793,219.433533 479.750458,221.122452 
	C472.575775,222.652786 464.983002,222.222870 457.292480,222.673798 
	C457.292480,215.088547 456.700287,208.243729 457.445160,201.547638 
	C458.339081,193.511505 464.535919,188.186111 473.203796,186.836334 
z"/>
<path fill="#FCFEFE" opacity="1.000000" stroke="none" 
	d="
M83.112091,193.191406 
	C88.192261,187.289597 94.407066,185.432678 101.304436,187.545288 
	C108.625999,189.787827 112.895721,195.311615 113.518700,202.915009 
	C114.028099,209.132233 113.622398,215.424408 113.622398,221.863113 
	C106.498756,221.863113 99.405579,222.828979 92.689636,221.648560 
	C81.105148,219.612411 74.049835,204.901779 83.112091,193.191406 
z"/>
<path fill="#FDFEFE" opacity="1.000000" stroke="none" 
	d="
M656.337158,187.117722 
	C666.162903,190.854141 669.975647,196.418808 669.994934,206.533249 
	C670.004700,211.652328 669.996643,216.771439 669.996643,221.883545 
	C662.827515,221.883545 656.169434,222.319519 649.593506,221.770737 
	C641.768066,221.117661 635.124695,212.759308 635.099487,204.538269 
	C635.073853,196.183121 641.917419,188.043701 649.969177,187.034027 
	C651.921814,186.789169 653.935852,187.033264 656.337158,187.117722 
z"/>
<path fill="#FCFEFE" opacity="1.000000" stroke="none" 
	d="
M303.940704,222.169189 
	C299.469513,222.113312 295.479340,222.210815 291.509674,221.970261 
	C282.600647,221.430420 275.137634,213.163055 275.358887,204.269897 
	C275.595459,194.760864 283.553833,186.865921 292.934845,186.834030 
	C302.066437,186.802994 309.814056,194.107819 310.122284,203.317795 
	C310.326263,209.412781 310.160919,215.520142 310.160919,222.169159 
	C307.971863,222.169159 306.201447,222.169159 303.940704,222.169189 
z"/>
<path fill="#3CB3E3" opacity="1.000000" stroke="none" 
	d="
M372.133484,209.874451 
	C371.236115,208.540588 370.032410,207.678864 369.680939,206.551453 
	C369.165955,204.899460 369.261169,203.057236 369.096375,201.296082 
	C371.020020,201.209564 373.310028,200.417557 374.789703,201.185944 
	C377.713654,202.704330 378.069519,208.920059 375.800018,211.340256 
	C373.865753,213.402985 372.747528,212.723495 372.133484,209.874451 
z"/>
<path fill="#8FD1E6" opacity="1.000000" stroke="none" 
	d="
M385.953003,163.537827 
	C384.429993,163.387741 382.961884,162.775314 381.231384,162.073410 
	C380.968933,157.566376 380.968933,153.148834 380.968933,148.695267 
	C385.267853,149.159241 386.434509,151.429733 386.045929,155.135590 
	C385.771301,157.754745 386.002533,160.426956 385.953003,163.537827 
z"/>
<path fill="#3CB3E3" opacity="1.000000" stroke="none" 
	d="
M351.995911,184.704224 
	C350.298859,182.476639 348.675934,180.230957 347.757294,177.726883 
	C347.331360,176.565842 348.276489,174.901810 348.600067,173.465805 
	C350.033539,173.979126 352.651123,174.397644 352.701080,175.021713 
	C352.953827,178.178558 352.538971,181.388855 351.995911,184.704224 
z"/>
<path fill="#3CB3E3" opacity="1.000000" stroke="none" 
	d="
M409.773865,181.435883 
	C408.880035,184.219711 407.816376,186.654221 406.752686,189.088715 
	C405.911865,188.864410 405.071014,188.640091 404.230164,188.415771 
	C404.443329,186.124298 404.305450,183.702698 405.077911,181.618484 
	C405.317902,180.970963 408.025940,181.238159 409.773865,181.435883 
z"/>
<path fill="#49BCE7" opacity="1.000000" stroke="none" 
	d="
M400.368958,193.146973 
	C404.194183,193.493317 403.706238,195.595383 402.477600,197.632706 
	C401.404022,199.412994 399.931915,200.952927 398.635834,202.599045 
	C397.906097,202.157379 397.176361,201.715729 396.446625,201.274078 
	C397.626434,198.595459 398.806213,195.916840 400.368958,193.146973 
z"/>
<path fill="#F4F9FB" opacity="1.000000" stroke="none" 
	d="
M359.025238,231.992554 
	C357.890442,234.022263 356.730804,236.061218 355.565033,238.110977 
	C349.268250,235.606003 349.268250,235.606003 352.235352,229.941299 
	C354.258026,230.609253 356.285736,231.278870 358.665894,231.950073 
	C359.018311,231.951660 359.000397,232.001816 359.025238,231.992554 
z"/>
<path fill="#F4F9FB" opacity="1.000000" stroke="none" 
	d="
M412.999817,231.997559 
	C413.667938,231.581635 414.439240,231.291565 415.210510,231.001495 
	C415.273346,231.214706 415.336212,231.427917 415.399048,231.641129 
	C414.884491,231.828781 414.369965,232.016434 413.579224,232.292130 
	C413.303040,232.380173 413.102966,232.123444 412.999817,231.997559 
z"/>
<path fill="#F4F9FB" opacity="1.000000" stroke="none" 
	d="
M410.243225,235.705917 
	C410.741730,235.918854 411.100800,236.299271 411.459869,236.679688 
	C411.024567,236.673721 410.589294,236.667786 409.988068,236.433975 
	C409.822144,236.206100 410.103760,235.873383 410.243225,235.705917 
z"/>
</svg>