<svg version="1.1" id="Layer_1" xmlns="http://www.w3.org/2000/svg" xmlns:xlink="http://www.w3.org/1999/xlink" x="0px" y="0px"
	 width="30%" height="30%" viewBox="0 0 256 256" enable-background="new 0 0 256 256" xml:space="preserve">
<path fill="#BAC8D3" opacity="0.000000" stroke="none"
	d="
M146.000000,257.000000 
	C97.333336,257.000000 49.166672,257.000000 1.000006,257.000000 
	C1.000004,171.666672 1.000004,86.333351 1.000002,1.000018 
	C86.333321,1.000012 171.666641,1.000012 257.000000,1.000006 
	C257.000000,86.333313 257.000000,171.666626 257.000000,256.999969 
	C220.166672,257.000000 183.333328,257.000000 146.000000,257.000000 
M39.334564,129.445480 
	C40.949043,137.363007 44.338272,140.065414 52.977921,140.070465 
	C93.299271,140.094040 133.620636,140.081436 173.942001,140.081757 
	C175.689102,140.081772 177.436203,140.081757 180.220993,140.081757 
	C178.277802,142.195114 177.129486,143.541611 175.879990,144.786575 
	C169.270416,151.372116 162.648636,157.945541 156.003357,164.495041 
	C152.885223,167.568237 150.896240,171.103409 151.563248,175.617813 
	C152.201874,179.940048 154.661041,182.891922 158.822662,184.329620 
	C163.869415,186.073059 167.996582,184.242325 171.510345,180.747238 
	C185.804001,166.529694 200.099457,152.312912 214.268616,137.971710 
	C220.251328,131.916336 220.042099,125.931931 213.826416,119.667046 
	C199.861771,105.591904 185.815048,91.598175 171.800308,77.572723 
	C171.329468,77.101524 170.865784,76.619286 170.360336,76.187141 
	C165.448715,71.987839 158.772690,72.056572 154.539108,76.339493 
	C150.323105,80.604630 150.166168,87.492775 154.636978,92.138336 
	C161.451691,99.219414 168.553391,106.023972 175.513779,112.965454 
	C176.872559,114.320549 178.142654,115.764580 180.194962,117.960938 
	C177.364746,117.960938 175.606293,117.960930 173.847824,117.960945 
	C133.526459,117.961273 93.205093,117.949127 52.883743,117.971779 
	C44.139000,117.976692 41.172607,120.379440 39.334564,129.445480 
z"/>
<path fill="#020202" opacity="0.5" stroke="none"
	d="
M39.337849,129.057007 
	C41.172607,120.379440 44.139000,117.976692 52.883743,117.971779 
	C93.205093,117.949127 133.526459,117.961273 173.847824,117.960945 
	C175.606293,117.960930 177.364746,117.960938 180.194962,117.960938 
	C178.142654,115.764580 176.872559,114.320549 175.513779,112.965454 
	C168.553391,106.023972 161.451691,99.219414 154.636978,92.138336 
	C150.166168,87.492775 150.323105,80.604630 154.539108,76.339493 
	C158.772690,72.056572 165.448715,71.987839 170.360336,76.187141 
	C170.865784,76.619286 171.329468,77.101524 171.800308,77.572723 
	C185.815048,91.598175 199.861771,105.591904 213.826416,119.667046 
	C220.042099,125.931931 220.251328,131.916336 214.268616,137.971710 
	C200.099457,152.312912 185.804001,166.529694 171.510345,180.747238 
	C167.996582,184.242325 163.869415,186.073059 158.822662,184.329620 
	C154.661041,182.891922 152.201874,179.940048 151.563248,175.617813 
	C150.896240,171.103409 152.885223,167.568237 156.003357,164.495041 
	C162.648636,157.945541 169.270416,151.372116 175.879990,144.786575 
	C177.129486,143.541611 178.277802,142.195114 180.220993,140.081757 
	C177.436203,140.081757 175.689102,140.081772 173.942001,140.081757 
	C133.620636,140.081436 93.299271,140.094040 52.977921,140.070465 
	C44.338272,140.065414 40.949043,137.363007 39.337849,129.057007 
z"/>
</svg>