<svg version="1.1" id="Layer_1" xmlns="http://www.w3.org/2000/svg" xmlns:xlink="http://www.w3.org/1999/xlink" x="0px" y="0px"
	 width="20%" height="20%" viewBox="0 0 256 256" enable-background="new 0 0 256 256" xml:space="preserve">
<path fill="#02AA9F" opacity="1.000000" stroke="none"
	d="
M257.000000,107.000000 
	C257.000000,121.687561 257.000000,136.375122 256.682281,151.195862 
	C255.933884,151.817825 255.203323,152.258591 255.116226,152.802429 
	C252.708160,167.838104 247.350906,181.789078 239.602875,194.834534 
	C230.411621,210.309952 218.424820,223.243546 203.785599,233.719482 
	C188.854156,244.404510 172.494873,251.763290 154.373749,255.094971 
	C153.817871,255.197174 153.453598,256.341522 153.000000,257.000000 
	C137.312439,257.000000 121.624878,257.000000 105.805328,256.683563 
	C100.016464,254.675339 94.307793,253.138229 88.711929,251.264252 
	C67.544571,244.175674 49.495491,232.437515 34.287048,215.940384 
	C17.873316,198.135803 7.613821,177.489578 2.927390,153.877045 
	C2.783567,153.152405 1.664431,152.621323 0.999999,152.000000 
	C1.000000,136.979111 1.000000,121.958214 1.316175,106.805153 
	C2.064086,106.185425 2.812432,105.738693 2.881362,105.204330 
	C4.714129,90.996010 10.381520,78.111580 17.124201,65.748146 
	C25.707541,50.009674 37.480270,36.724976 51.866768,26.134876 
	C67.907677,14.326938 85.663307,5.944218 105.623596,2.902653 
	C106.166428,2.819935 106.544884,1.658439 107.000000,0.999999 
	C121.354225,1.000000 135.708450,1.000000 150.191559,1.315231 
	C151.305359,2.086196 152.252777,2.664902 153.281067,2.978419 
	C162.367325,5.748743 171.841537,7.615139 180.487579,11.385110 
	C199.270966,19.575327 215.349030,31.619553 228.333237,47.739517 
	C242.006393,64.714790 251.360336,83.562195 255.075699,105.125404 
	C255.198761,105.839584 256.335693,106.379074 257.000000,107.000000 
M121.134750,168.499390 
	C121.134689,171.996094 121.097939,175.493240 121.141411,178.989395 
	C121.274986,189.731064 119.580444,188.499741 131.103256,188.823532 
	C135.662460,188.951645 137.088715,187.500763 137.045258,182.871841 
	C136.827972,159.729126 136.946014,136.583237 136.946106,113.438477 
	C136.946136,103.031754 136.941696,103.231812 126.745895,103.008110 
	C122.451401,102.913887 120.976768,104.033279 121.031990,108.556732 
	C121.271805,128.201874 121.135017,147.851624 121.134750,168.499390 
M136.499466,73.011497 
	C132.498260,69.482971 127.565750,68.644989 123.834435,71.154938 
	C120.394478,73.468910 118.131691,77.061508 119.808022,80.911697 
	C121.108383,83.898376 123.958771,87.330818 126.829292,88.186646 
	C129.505798,88.984634 133.885422,87.503792 136.140472,85.488007 
	C139.641357,82.358536 139.491669,77.792252 136.499466,73.011497 
z"/>
<path fill="#000000" opacity="0.000000" stroke="none"
	d="
M257.000000,106.531342 
	C256.335693,106.379074 255.198761,105.839584 255.075699,105.125404 
	C251.360336,83.562195 242.006393,64.714790 228.333237,47.739517 
	C215.349030,31.619553 199.270966,19.575327 180.487579,11.385110 
	C171.841537,7.615139 162.367325,5.748743 153.281067,2.978419 
	C152.252777,2.664902 151.305359,2.086196 150.660217,1.315231 
	C186.260269,1.000000 221.520554,1.000000 257.000000,1.000000 
	C257.000000,36.020588 257.000000,71.041634 257.000000,106.531342 
z"/>
<path fill="#000000" opacity="0.000000" stroke="none"
	d="
M106.531342,0.999999 
	C106.544884,1.658439 106.166428,2.819935 105.623596,2.902653 
	C85.663307,5.944218 67.907677,14.326938 51.866768,26.134876 
	C37.480270,36.724976 25.707541,50.009674 17.124201,65.748146 
	C10.381520,78.111580 4.714129,90.996010 2.881362,105.204330 
	C2.812432,105.738693 2.064086,106.185425 1.316175,106.336494 
	C1.000000,71.072708 1.000000,36.145412 1.000000,1.000000 
	C36.020592,1.000000 71.041641,1.000000 106.531342,0.999999 
z"/>
<path fill="#000000" opacity="0.000000" stroke="none"
	d="
M0.999999,152.468658 
	C1.664431,152.621323 2.783567,153.152405 2.927390,153.877045 
	C7.613821,177.489578 17.873316,198.135803 34.287048,215.940384 
	C49.495491,232.437515 67.544571,244.175674 88.711929,251.264252 
	C94.307793,253.138229 100.016464,254.675339 105.336670,256.683563 
	C70.406044,257.000000 35.812084,257.000000 1.000000,257.000000 
	C1.000000,222.312744 1.000000,187.625031 0.999999,152.468658 
z"/>
<path fill="#000000" opacity="0.000000" stroke="none"
	d="
M153.468658,257.000000 
	C153.453598,256.341522 153.817871,255.197174 154.373749,255.094971 
	C172.494873,251.763290 188.854156,244.404510 203.785599,233.719482 
	C218.424820,223.243546 230.411621,210.309952 239.602875,194.834534 
	C247.350906,181.789078 252.708160,167.838104 255.116226,152.802429 
	C255.203323,152.258591 255.933884,151.817825 256.682281,151.664520 
	C257.000000,186.926590 257.000000,221.853195 257.000000,257.000000 
	C222.646088,257.000000 188.291702,257.000000 153.468658,257.000000 
z"/>
<path fill="#FBFEFE" opacity="1.000000" stroke="none"
	d="
M121.134933,167.999542 
	C121.135017,147.851624 121.271805,128.201874 121.031990,108.556732 
	C120.976768,104.033279 122.451401,102.913887 126.745895,103.008110 
	C136.941696,103.231812 136.946136,103.031754 136.946106,113.438477 
	C136.946014,136.583237 136.827972,159.729126 137.045258,182.871841 
	C137.088715,187.500763 135.662460,188.951645 131.103256,188.823532 
	C119.580444,188.499741 121.274986,189.731064 121.141411,178.989395 
	C121.097939,175.493240 121.134689,171.996094 121.134933,167.999542 
z"/>
<path fill="#FCFEFE" opacity="1.000000" stroke="none"
	d="
M136.729034,73.318878 
	C139.491669,77.792252 139.641357,82.358536 136.140472,85.488007 
	C133.885422,87.503792 129.505798,88.984634 126.829292,88.186646 
	C123.958771,87.330818 121.108383,83.898376 119.808022,80.911697 
	C118.131691,77.061508 120.394478,73.468910 123.834435,71.154938 
	C127.565750,68.644989 132.498260,69.482971 136.729034,73.318878 
z"/>
</svg>