<svg version="1.1" id="Layer_1" xmlns="http://www.w3.org/2000/svg" xmlns:xlink="http://www.w3.org/1999/xlink" x="0px" y="0px"
	 width="30%" height="30%" viewBox="0 0 512 512" enable-background="new 0 0 512 512" xml:space="preserve">
<path fill="#BAC8D3" opacity="0.000000" stroke="none"
	d="
M326.000000,513.000000 
	C217.359726,513.000000 109.219444,513.000000 1.039583,513.000000 
	C1.039583,342.401367 1.039583,171.802719 1.039583,1.102037 
	C171.556946,1.102037 342.113983,1.102037 512.835510,1.102037 
	C512.835510,171.666534 512.835510,342.333252 512.835510,513.000000 
	C450.802704,513.000000 388.651337,513.000000 326.000000,513.000000 
M101.407463,115.912254 
	C100.700073,116.619728 99.992500,117.327034 99.285309,118.034706 
	C94.306206,123.017113 94.303116,123.020248 99.193214,127.910851 
	C110.972893,139.691742 122.761871,151.463333 134.528397,163.257324 
	C135.771072,164.502899 136.889389,165.872543 138.284149,167.428680 
	C136.159210,169.357407 134.491302,170.958771 132.733109,172.453964 
	C109.231812,192.439377 91.253487,216.500366 79.531517,245.076630 
	C78.602188,247.342178 78.690689,250.676773 79.638535,252.961914 
	C91.601257,281.802673 109.728088,306.191467 133.684860,326.181152 
	C166.329102,353.419708 204.059174,368.235962 246.387283,370.778107 
	C272.749786,372.361389 298.537354,368.583069 323.295410,359.034119 
	C327.092957,357.569458 329.654480,358.143402 332.550201,361.093597 
	C347.720581,376.549377 363.098419,391.801636 378.415436,407.113342 
	C379.789429,408.486877 381.243927,409.779816 381.979919,410.470764 
	C389.078583,403.537659 395.781677,396.990906 401.968964,390.947906 
	C306.301392,295.318512 210.434708,199.490097 113.684601,102.778603 
	C110.025520,106.703651 105.966949,111.057220 101.407463,115.912254 
M221.136902,167.381134 
	C224.522736,172.250946 228.464386,173.198700 234.283615,170.966003 
	C245.409256,166.697418 257.339630,166.598709 268.838043,168.382462 
	C319.395630,176.225494 349.759094,225.806274 334.021729,274.264984 
	C332.943085,277.586334 333.351349,279.729858 335.842072,282.183197 
	C349.609985,295.744385 363.216187,309.469696 376.897827,323.118744 
	C377.915649,324.134155 379.090088,324.992706 380.122559,325.865723 
	C380.916962,325.356812 381.370605,325.132935 381.745911,324.816223 
	C405.492157,304.779419 423.117310,280.264343 434.983246,251.610825 
	C435.694458,249.893417 435.454285,247.316238 434.712524,245.531570 
	C419.366730,208.609436 394.821411,179.065765 361.330261,157.488846 
	C316.646576,128.701035 267.817078,120.558044 215.857422,131.192322 
	C208.146561,132.770447 200.656342,135.426620 191.611404,137.996841 
	C202.061020,148.395248 211.347809,157.636520 221.136902,167.381134 
M269.130341,215.369629 
	C280.953491,227.191681 292.776642,239.013733 305.067169,251.303116 
	C308.363525,224.417923 282.532959,197.370026 254.744003,200.820740 
	C259.642822,205.776657 264.136749,210.322952 269.130341,215.369629 
z"/>
<path fill="#02AA9F" opacity="1.000000" stroke="none"
	d="
M101.657928,115.661522 
	C105.966949,111.057220 110.025520,106.703651 113.684601,102.778603 
	C210.434708,199.490097 306.301392,295.318512 401.968964,390.947906 
	C395.781677,396.990906 389.078583,403.537659 381.979919,410.470764 
	C381.243927,409.779816 379.789429,408.486877 378.415436,407.113342 
	C363.098419,391.801636 347.720581,376.549377 332.550201,361.093597 
	C329.654480,358.143402 327.092957,357.569458 323.295410,359.034119 
	C298.537354,368.583069 272.749786,372.361389 246.387283,370.778107 
	C204.059174,368.235962 166.329102,353.419708 133.684860,326.181152 
	C109.728088,306.191467 91.601257,281.802673 79.638535,252.961914 
	C78.690689,250.676773 78.602188,247.342178 79.531517,245.076630 
	C91.253487,216.500366 109.231812,192.439377 132.733109,172.453964 
	C134.491302,170.958771 136.159210,169.357407 138.284149,167.428680 
	C136.889389,165.872543 135.771072,164.502899 134.528397,163.257324 
	C122.761871,151.463333 110.972893,139.691742 99.193214,127.910851 
	C94.303116,123.020248 94.306206,123.017113 99.285309,118.034706 
	C99.992500,117.327034 100.700073,116.619728 101.657928,115.661522 
M182.842972,282.604462 
	C206.893463,334.335632 266.607544,338.366913 292.109222,320.725311 
	C285.331360,313.977722 278.486145,307.432373 271.982605,300.563507 
	C269.161041,297.583466 266.238403,296.596222 262.242584,297.074860 
	C258.666473,297.503235 254.962662,297.476562 251.374481,297.094238 
	C226.921890,294.488770 207.143646,273.401306 208.508102,248.927826 
	C209.055649,239.106689 205.635315,233.479340 199.229813,227.811386 
	C195.243515,224.284042 191.670456,220.292053 187.864761,216.556656 
	C186.851486,215.562103 185.664429,214.744614 183.976624,213.374588 
	C173.055450,236.522247 172.818848,259.094727 182.842972,282.604462 
z"/>
<path fill="#02AA9F" opacity="1.000000" stroke="none"
	d="
M220.885742,167.129456 
	C211.347809,157.636520 202.061020,148.395248 191.611404,137.996841 
	C200.656342,135.426620 208.146561,132.770447 215.857422,131.192322 
	C267.817078,120.558044 316.646576,128.701035 361.330261,157.488846 
	C394.821411,179.065765 419.366730,208.609436 434.712524,245.531570 
	C435.454285,247.316238 435.694458,249.893417 434.983246,251.610825 
	C423.117310,280.264343 405.492157,304.779419 381.745911,324.816223 
	C381.370605,325.132935 380.916962,325.356812 380.122559,325.865723 
	C379.090088,324.992706 377.915649,324.134155 376.897827,323.118744 
	C363.216187,309.469696 349.609985,295.744385 335.842072,282.183197 
	C333.351349,279.729858 332.943085,277.586334 334.021729,274.264984 
	C349.759094,225.806274 319.395630,176.225494 268.838043,168.382462 
	C257.339630,166.598709 245.409256,166.697418 234.283615,170.966003 
	C228.464386,173.198700 224.522736,172.250946 220.885742,167.129456 
z"/>
<path fill="#52BFD4" opacity="1.000000" stroke="none"
	d="
M268.880493,215.119446 
	C264.136749,210.322952 259.642822,205.776657 254.744003,200.820740 
	C282.532959,197.370026 308.363525,224.417923 305.067169,251.303116 
	C292.776642,239.013733 280.953491,227.191681 268.880493,215.119446 
z"/>
<path fill="#B9C8D3" opacity="0.000000" stroke="none"
	d="
M182.677124,282.263306 
	C172.818848,259.094727 173.055450,236.522247 183.976624,213.374588 
	C185.664429,214.744614 186.851486,215.562103 187.864761,216.556656 
	C191.670456,220.292053 195.243515,224.284042 199.229813,227.811386 
	C205.635315,233.479340 209.055649,239.106689 208.508102,248.927826 
	C207.143646,273.401306 226.921890,294.488770 251.374481,297.094238 
	C254.962662,297.476562 258.666473,297.503235 262.242584,297.074860 
	C266.238403,296.596222 269.161041,297.583466 271.982605,300.563507 
	C278.486145,307.432373 285.331360,313.977722 292.109222,320.725311 
	C266.607544,338.366913 206.893463,334.335632 182.677124,282.263306 
z"/>
</svg>