<svg version="1.1" id="Layer_1" xmlns="http://www.w3.org/2000/svg" xmlns:xlink="http://www.w3.org/1999/xlink" x="0px" y="0px"
	 width="30%" height="30%" viewBox="0 0 256 256" enable-background="new 0 0 256 256" xml:space="preserve">
<path fill="none" opacity="1.000000" stroke="none"
	d="
M257.000000,106.000000 
	C257.000000,121.020897 257.000000,136.041794 256.690735,151.178894 
	C255.943970,151.775940 255.199539,152.207718 255.113693,152.744781 
	C252.815536,167.121643 247.542465,180.344589 240.557968,193.091553 
	C232.981155,206.919510 222.638779,218.496887 210.792664,228.353104 
	C194.177139,242.177597 175.017151,251.550568 153.364578,255.095657 
	C152.820374,255.184769 152.450958,256.341309 152.000000,257.000000 
	C136.979111,257.000000 121.958214,257.000000 106.808105,256.683105 
	C106.191345,255.933929 105.750824,255.197449 105.209366,255.113693 
	C91.462105,252.987640 78.936432,247.672150 66.613312,241.372925 
	C52.093063,233.950592 40.257954,223.267075 29.974220,211.143143 
	C15.851311,194.493057 6.623004,175.119980 2.905102,153.364441 
	C2.811561,152.817078 1.658774,152.450745 1.000001,152.000000 
	C1.000000,136.979111 1.000000,121.958214 1.320896,106.800934 
	C2.205971,104.866463 2.882129,103.095039 3.317446,101.266273 
	C9.341290,75.960243 21.310467,54.179203 40.271717,36.062248 
	C58.425934,18.716391 79.677475,7.922539 104.107452,2.928664 
	C104.839142,2.779096 105.373589,1.664606 106.000000,0.999998 
	C121.020897,1.000000 136.041794,1.000000 151.199066,1.320889 
	C151.991867,2.084860 152.599258,2.804718 153.311783,2.930876 
	C175.880051,6.926794 195.850571,16.623537 212.962891,31.621588 
	C235.176331,51.090500 249.688431,75.301529 255.093872,104.636215 
	C255.195755,105.189117 256.341370,105.549690 257.000000,106.000000 
M55.533073,123.267708 
	C50.641933,132.800995 59.809288,146.340195 72.370544,143.550308 
	C79.373779,141.994904 83.991394,136.209503 84.098198,129.282547 
	C84.204468,122.390411 80.116898,116.855659 73.386543,114.778503 
	C66.418274,112.627922 60.345459,115.335602 55.533073,123.267708 
M173.930618,127.740562 
	C173.941467,128.738113 173.836288,129.752960 173.982056,130.730392 
	C174.896805,136.864227 178.230759,141.057724 184.139221,143.089951 
	C190.158295,145.160217 195.384430,143.523743 199.578308,139.079269 
	C203.817139,134.587189 204.803619,129.173401 202.486023,123.355736 
	C200.159470,117.515594 194.023880,113.672821 187.879395,114.070320 
	C180.933167,114.519699 176.105103,118.978279 173.930618,127.740562 
M121.090202,116.359497 
	C114.093369,122.054611 112.251549,128.659470 115.721268,135.612778 
	C118.846909,141.876556 125.900536,145.195908 132.412659,143.467529 
	C141.230957,141.127106 145.975555,132.460037 143.020020,124.090851 
	C139.944656,115.382362 131.142380,112.034615 121.090202,116.359497 
z"/>
<path fill="#000000" opacity="0.000000" stroke="none"
	d="
M257.000000,105.531342 
	C256.341370,105.549690 255.195755,105.189117 255.093872,104.636215 
	C249.688431,75.301529 235.176331,51.090500 212.962891,31.621588 
	C195.850571,16.623537 175.880051,6.926794 153.311783,2.930876 
	C152.599258,2.804718 151.991867,2.084860 151.667725,1.320889 
	C186.926941,1.000000 221.853882,1.000000 257.000000,1.000000 
	C257.000000,35.687252 257.000000,70.374969 257.000000,105.531342 
z"/>
<path fill="#000000" opacity="0.000000" stroke="none"
	d="
M1.000001,152.468658 
	C1.658774,152.450745 2.811561,152.817078 2.905102,153.364441 
	C6.623004,175.119980 15.851311,194.493057 29.974220,211.143143 
	C40.257954,223.267075 52.093063,233.950592 66.613312,241.372925 
	C78.936432,247.672150 91.462105,252.987640 105.209366,255.113693 
	C105.750824,255.197449 106.191345,255.933929 106.339447,256.683105 
	C71.073059,257.000000 36.146114,257.000000 1.000000,257.000000 
	C1.000000,222.312744 1.000000,187.625031 1.000001,152.468658 
z"/>
<path fill="#000000" opacity="0.000000" stroke="none"
	d="
M105.531342,0.999998 
	C105.373589,1.664606 104.839142,2.779096 104.107452,2.928664 
	C79.677475,7.922539 58.425934,18.716391 40.271717,36.062248 
	C21.310467,54.179203 9.341290,75.960243 3.317446,101.266273 
	C2.882129,103.095039 2.205971,104.866463 1.320896,106.332275 
	C1.000000,71.073059 1.000000,36.146111 1.000000,1.000000 
	C35.687252,1.000000 70.374969,1.000000 105.531342,0.999998 
z"/>
<path fill="#000000" opacity="0.000000" stroke="none"
	d="
M152.468658,257.000000 
	C152.450958,256.341309 152.820374,255.184769 153.364578,255.095657 
	C175.017151,251.550568 194.177139,242.177597 210.792664,228.353104 
	C222.638779,218.496887 232.981155,206.919510 240.557968,193.091553 
	C247.542465,180.344589 252.815536,167.121643 255.113693,152.744781 
	C255.199539,152.207718 255.943970,151.775940 256.690735,151.647552 
	C257.000000,186.926941 257.000000,221.853882 257.000000,257.000000 
	C222.312744,257.000000 187.625031,257.000000 152.468658,257.000000 
z"/>
<path fill="#fff" opacity="1.000000" stroke="none"
	d="
M55.704483,122.926834 
	C60.345459,115.335602 66.418274,112.627922 73.386543,114.778503 
	C80.116898,116.855659 84.204468,122.390411 84.098198,129.282547 
	C83.991394,136.209503 79.373779,141.994904 72.370544,143.550308 
	C59.809288,146.340195 50.641933,132.800995 55.704483,122.926834 
z"/>
<path fill="#fff" opacity="1.000000" stroke="none"
	d="
M173.959595,127.319351 
	C176.105103,118.978279 180.933167,114.519699 187.879395,114.070320 
	C194.023880,113.672821 200.159470,117.515594 202.486023,123.355736 
	C204.803619,129.173401 203.817139,134.587189 199.578308,139.079269 
	C195.384430,143.523743 190.158295,145.160217 184.139221,143.089951 
	C178.230759,141.057724 174.896805,136.864227 173.982056,130.730392 
	C173.836288,129.752960 173.941467,128.738113 173.959595,127.319351 
z"/>
<path fill="#fff" opacity="1.000000" stroke="none"
	d="
M121.430786,116.184448 
	C131.142380,112.034615 139.944656,115.382362 143.020020,124.090851 
	C145.975555,132.460037 141.230957,141.127106 132.412659,143.467529 
	C125.900536,145.195908 118.846909,141.876556 115.721268,135.612778 
	C112.251549,128.659470 114.093369,122.054611 121.430786,116.184448 
z"/>
</svg>