<svg version="1.1" id="Layer_1" xmlns="http://www.w3.org/2000/svg" xmlns:xlink="http://www.w3.org/1999/xlink" x="0px" y="0px"
	 width="30%" height="30%" viewBox="0 0 256 256" enable-background="new 0 0 256 256" xml:space="preserve">
    <path fill="#FFFFFF" opacity="0.000000" stroke="none"
		  d="M1.000000,144.468658
        C3.556287,149.959183 3.532757,156.501068 5.292611,162.670517
        C13.357244,190.942307 29.017990,213.894531 52.455929,231.650040
        C68.773033,244.011124 87.185875,251.392288 107.083778,255.466263
        C109.174553,255.894333 111.460587,255.033478 113.693382,256.727844
        C76.406380,257.000000 38.812756,257.000000 1.000000,257.000000
        C1.000000,219.646057 1.000000,182.291687 1.000000,144.468658
        z"/>
	<path fill="#FFFFFF" opacity="0.000000" stroke="none"
		  d="M144.468658,257.000000
        C148.671158,254.751801 153.883270,254.887177 158.799377,253.668518
        C181.318024,248.086349 200.811081,237.383331 217.646591,221.278381
        C239.484070,200.388565 251.731186,174.902588 256.629181,145.175705
        C257.000000,182.260605 257.000000,219.521225 257.000000,257.000000
        C219.646057,257.000000 182.291687,257.000000 144.468658,257.000000
        z"/>
	<path fill="#FFFFFF" opacity="0.000000" stroke="none"
		  d="M257.000000,113.531342
        C254.826172,112.211243 255.866898,109.645317 255.465118,107.445404
        C251.367676,85.010521 242.567856,64.564194 227.841339,47.196457
        C208.514008,24.402716 184.169006,9.387326 154.606201,3.416910
        C151.545792,2.798840 148.463928,2.287140 145.196014,1.363042
        C182.260605,1.000000 219.521194,1.000000 257.000000,1.000000
        C257.000000,38.353943 257.000000,75.708313 257.000000,113.531342
        z"/>
	<path fill="#FFFFFF" opacity="0.000000" stroke="none"
		  d="M112.531342,1.000000
        C107.640831,3.626116 101.628632,3.565108 95.989716,5.145346
        C61.755875,14.738957 35.689445,34.700752 17.734274,65.435493
        C9.155719,80.119820 4.381514,95.980759 1.368609,112.809761
        C1.000000,75.739716 1.000000,38.479435 1.000000,1.000000
        C38.020607,1.000000 75.041641,1.000000 112.531342,1.000000
        z"/>
	<path fill="#FFFFFF" opacity="1.000000" stroke="none"
		  d="M123.141418,171.123367
        C120.319321,174.210403 117.800735,177.103073 115.098183,179.812225
        C110.883286,184.037369 107.138000,184.325745 102.873924,180.363403
        C87.992126,166.534683 73.193993,152.614990 58.460964,138.627792
        C54.784538,135.137482 54.584354,130.213699 57.528297,126.979782
        C60.588955,123.617653 65.652489,123.454048 69.607018,126.956314
        C80.202187,136.339783 90.683945,145.851425 101.200142,155.323929
        C107.951691,161.405411 110.322594,161.287445 116.422256,154.520416
        C137.158401,131.515488 157.891693,108.508011 178.636230,85.510643
        C184.206711,79.335220 188.485733,78.297203 192.614502,82.054283
        C196.712524,85.783386 195.957932,90.379166 190.603424,96.300293
        C168.158310,121.120636 145.770981,145.993256 123.141418,171.123367
        z"/>
</svg>
