<svg version="1.1" id="Layer_1" xmlns="http://www.w3.org/2000/svg" xmlns:xlink="http://www.w3.org/1999/xlink" x="0px" y="0px"
	 width="40%" height="40%" viewBox="0 0 512 512" enable-background="new 0 0 512 512" xml:space="preserve">
<path fill="#2196F3" opacity="1.000000" stroke="none"
	d="
M289.000000,513.000000 
	C267.979095,513.000000 246.958206,513.000000 225.801971,512.661377 
	C224.826065,511.885498 224.023987,511.183044 223.138657,511.054657 
	C217.806061,510.281403 212.366501,510.039337 207.123993,508.886292 
	C181.530136,503.257172 156.968658,494.870148 133.932922,482.067902 
	C107.154106,467.185364 83.814987,448.294647 63.621502,425.252625 
	C47.390045,406.731628 34.266891,386.362396 23.963997,364.041351 
	C13.203093,340.728088 5.725482,316.525574 2.916029,290.940155 
	C2.838252,290.231842 1.663325,289.644012 1.000002,289.000000 
	C1.000000,267.979095 1.000000,246.958206 1.351073,225.792664 
	C2.121289,224.968643 2.796800,224.332382 2.919426,223.603165 
	C3.998728,217.184906 4.808235,210.717651 6.019378,204.325851 
	C11.203510,176.966675 21.338581,151.367371 35.363541,127.484993 
	C51.447407,100.096603 72.032280,76.348236 96.978104,56.520885 
	C113.716972,43.216564 131.751953,32.071259 151.266373,23.249107 
	C174.205185,12.878839 198.004303,5.748878 223.059418,2.916161 
	C223.769424,2.835889 224.355927,1.663276 225.000000,1.000002 
	C246.020889,1.000000 267.041779,1.000000 288.198730,1.339979 
	C289.342957,2.118371 290.312134,2.765651 291.365417,2.962233 
	C299.991394,4.572188 308.713684,5.748398 317.254150,7.718031 
	C339.156616,12.769233 359.812164,21.003262 379.611053,31.754534 
	C397.640076,41.544708 414.271271,53.211792 429.262695,67.034607 
	C438.828400,75.854637 447.461853,85.749359 455.996643,95.609421 
	C470.023895,111.814865 480.930237,130.059433 489.919708,149.502991 
	C500.763702,172.957703 508.106445,197.379211 511.083954,223.086411 
	C511.165283,223.788818 512.336853,224.364975 513.000000,225.000000 
	C513.000000,246.020889 513.000000,267.041779 512.650391,288.206238 
	C511.870605,289.194855 511.200500,289.998840 511.047668,290.891418 
	C509.592224,299.392548 508.776550,308.044403 506.725006,316.394440 
	C501.215027,338.820801 493.107605,360.286804 481.877655,380.557312 
	C472.193420,398.037659 460.938904,414.467651 447.260223,428.929108 
	C436.869690,439.914337 425.369843,449.944397 413.717987,459.622162 
	C392.131348,477.551514 367.490417,490.224518 341.069489,499.435699 
	C324.785583,505.112762 308.133972,509.359406 290.906403,511.086426 
	C290.213959,511.155853 289.632935,512.336914 289.000000,513.000000 
M278.180267,143.792282 
	C277.566803,134.960022 273.092529,128.705078 265.055664,125.308517 
	C251.004074,119.370026 235.925201,129.570602 235.819458,145.235352 
	C235.629425,173.388062 235.763138,201.542908 235.742249,229.696854 
	C235.740829,231.611938 235.577911,233.526886 235.475815,235.753586 
	C232.843903,235.753586 230.859451,235.753494 228.874985,235.753601 
	C201.387375,235.755157 173.899597,235.811905 146.412308,235.719650 
	C139.516785,235.696503 133.567215,237.660812 129.041779,242.932312 
	C123.307892,249.611511 122.069618,257.325684 125.483261,265.331421 
	C129.082535,273.772583 135.860214,278.182465 145.117722,278.205597 
	C173.271500,278.276001 201.426941,278.385376 229.578232,278.115234 
	C234.744736,278.065674 235.915588,279.521912 235.871841,284.508881 
	C235.627853,312.327515 235.710617,340.149536 235.782990,367.970154 
	C235.812805,379.428345 242.811325,388.197906 253.003235,389.938385 
	C266.609039,392.261841 278.116150,382.648621 278.192383,368.479279 
	C278.342041,340.659302 278.242096,312.837952 278.246918,285.017181 
	C278.248108,278.251526 278.250793,278.247955 284.910767,278.247070 
	C312.564972,278.243469 340.219238,278.280029 367.873322,278.220154 
	C377.890137,278.198456 385.477905,273.262604 388.803375,264.913391 
	C394.443176,250.753708 384.290161,235.906342 368.579895,235.811447 
	C340.593536,235.642365 312.605408,235.757355 284.618042,235.753601 
	C282.681549,235.753342 280.745056,235.753555 279.141998,235.753555 
	C278.668427,234.759613 278.408478,234.468307 278.407745,234.176346 
	C278.333588,204.360306 278.278931,174.544205 278.180267,143.792282 
z"/>
<path fill="#FFFFFF" opacity="0.000000" stroke="none"
	d="
M513.000000,224.531342 
	C512.336853,224.364975 511.165283,223.788818 511.083954,223.086411 
	C508.106445,197.379211 500.763702,172.957703 489.919708,149.502991 
	C480.930237,130.059433 470.023895,111.814865 455.996643,95.609421 
	C447.461853,85.749359 438.828400,75.854637 429.262695,67.034607 
	C414.271271,53.211792 397.640076,41.544708 379.611053,31.754534 
	C359.812164,21.003262 339.156616,12.769233 317.254150,7.718031 
	C308.713684,5.748398 299.991394,4.572188 291.365417,2.962233 
	C290.312134,2.765651 289.342957,2.118371 288.667419,1.339979 
	C363.593719,1.000000 438.187408,1.000000 513.000000,1.000000 
	C513.000000,75.354088 513.000000,149.708389 513.000000,224.531342 
z"/>
<path fill="#FFFFFF" opacity="0.000000" stroke="none"
	d="
M289.468658,513.000000 
	C289.632935,512.336914 290.213959,511.155853 290.906403,511.086426 
	C308.133972,509.359406 324.785583,505.112762 341.069489,499.435699 
	C367.490417,490.224518 392.131348,477.551514 413.717987,459.622162 
	C425.369843,449.944397 436.869690,439.914337 447.260223,428.929108 
	C460.938904,414.467651 472.193420,398.037659 481.877655,380.557312 
	C493.107605,360.286804 501.215027,338.820801 506.725006,316.394440 
	C508.776550,308.044403 509.592224,299.392548 511.047668,290.891418 
	C511.200500,289.998840 511.870605,289.194855 512.650391,288.674866 
	C513.000000,363.593719 513.000000,438.187408 513.000000,513.000000 
	C438.645905,513.000000 364.291626,513.000000 289.468658,513.000000 
z"/>
<path fill="#FFFFFF" opacity="0.000000" stroke="none"
	d="
M1.000002,289.468658 
	C1.663325,289.644012 2.838252,290.231842 2.916029,290.940155 
	C5.725482,316.525574 13.203093,340.728088 23.963997,364.041351 
	C34.266891,386.362396 47.390045,406.731628 63.621502,425.252625 
	C83.814987,448.294647 107.154106,467.185364 133.932922,482.067902 
	C156.968658,494.870148 181.530136,503.257172 207.123993,508.886292 
	C212.366501,510.039337 217.806061,510.281403 223.138657,511.054657 
	C224.023987,511.183044 224.826065,511.885498 225.333313,512.661377 
	C150.406296,513.000000 75.812599,513.000000 1.000000,513.000000 
	C1.000000,438.645905 1.000000,364.291626 1.000002,289.468658 
z"/>
<path fill="#FFFFFF" opacity="0.000000" stroke="none"
	d="
M224.531342,1.000002 
	C224.355927,1.663276 223.769424,2.835889 223.059418,2.916161 
	C198.004303,5.748878 174.205185,12.878839 151.266373,23.249107 
	C131.751953,32.071259 113.716972,43.216564 96.978104,56.520885 
	C72.032280,76.348236 51.447407,100.096603 35.363541,127.484993 
	C21.338581,151.367371 11.203510,176.966675 6.019378,204.325851 
	C4.808235,210.717651 3.998728,217.184906 2.919426,223.603165 
	C2.796800,224.332382 2.121289,224.968643 1.351073,225.324005 
	C1.000000,150.406296 1.000000,75.812576 1.000000,1.000000 
	C75.354088,1.000000 149.708389,1.000000 224.531342,1.000002 
z"/>
<path fill="#FAFAFA" opacity="1.000000" stroke="none"
	d="
M278.201721,144.260193 
	C278.278931,174.544205 278.333588,204.360306 278.407745,234.176346 
	C278.408478,234.468307 278.668427,234.759613 279.141998,235.753555 
	C280.745056,235.753555 282.681549,235.753342 284.618042,235.753601 
	C312.605408,235.757355 340.593536,235.642365 368.579895,235.811447 
	C384.290161,235.906342 394.443176,250.753708 388.803375,264.913391 
	C385.477905,273.262604 377.890137,278.198456 367.873322,278.220154 
	C340.219238,278.280029 312.564972,278.243469 284.910767,278.247070 
	C278.250793,278.247955 278.248108,278.251526 278.246918,285.017181 
	C278.242096,312.837952 278.342041,340.659302 278.192383,368.479279 
	C278.116150,382.648621 266.609039,392.261841 253.003235,389.938385 
	C242.811325,388.197906 235.812805,379.428345 235.782990,367.970154 
	C235.710617,340.149536 235.627853,312.327515 235.871841,284.508881 
	C235.915588,279.521912 234.744736,278.065674 229.578232,278.115234 
	C201.426941,278.385376 173.271500,278.276001 145.117722,278.205597 
	C135.860214,278.182465 129.082535,273.772583 125.483261,265.331421 
	C122.069618,257.325684 123.307892,249.611511 129.041779,242.932312 
	C133.567215,237.660812 139.516785,235.696503 146.412308,235.719650 
	C173.899597,235.811905 201.387375,235.755157 228.874985,235.753601 
	C230.859451,235.753494 232.843903,235.753586 235.475815,235.753586 
	C235.577911,233.526886 235.740829,231.611938 235.742249,229.696854 
	C235.763138,201.542908 235.629425,173.388062 235.819458,145.235352 
	C235.925201,129.570602 251.004074,119.370026 265.055664,125.308517 
	C273.092529,128.705078 277.566803,134.960022 278.201721,144.260193 
z"/>
</svg>