<svg version="1.1" id="Layer_1" xmlns="http://www.w3.org/2000/svg" xmlns:xlink="http://www.w3.org/1999/xlink" x="0px" y="0px"
	 width="25%" height="25%" viewBox="0 0 256 256" enable-background="new 0 0 256 256" xml:space="preserve">
<path fill="#000000" opacity="0.000000" stroke="none"
	d="
M257.000000,7.502093 
	C255.039963,5.889432 253.079926,3.778867 251.059937,1.334151 
	C252.920670,1.000000 254.841354,1.000000 257.000000,1.000000 
	C257.000000,2.998669 257.000000,5.001430 257.000000,7.502093 
z"/>
<path fill="#000000" opacity="0.000000" stroke="none"
	d="
M1.000000,250.497910 
	C2.922187,252.432831 4.743400,254.966888 7.770004,256.761505 
	C5.752364,257.000000 3.504728,257.000000 1.000000,257.000000 
	C1.000000,255.001862 1.000000,252.998840 1.000000,250.497910 
z"/>
<path fill="#000000" opacity="1.000000" stroke="none"
	d="
M107.999954,219.279877 
	C90.506340,219.272018 73.512611,219.300568 56.519161,219.244446 
	C42.190277,219.197113 33.844521,210.907349 33.827133,196.514389 
	C33.772781,151.531372 33.779915,106.548210 33.827499,61.565170 
	C33.842720,47.176846 42.210670,38.785282 56.446419,38.766441 
	C85.268867,38.728294 114.091591,38.802238 142.913666,38.691860 
	C146.843613,38.676811 150.006027,39.704319 152.797791,42.472275 
	C163.799744,53.380447 174.868805,64.221069 185.934189,75.065071 
	C188.209564,77.294930 189.246338,79.928642 189.244019,83.117989 
	C189.216034,121.436859 189.314728,159.756088 189.174637,198.074478 
	C189.128311,210.748627 180.329391,219.173584 167.477005,219.241898 
	C147.818481,219.346420 128.159012,219.275833 107.999954,219.279877 
M128.499939,207.666992 
	C141.332214,207.668335 154.164749,207.720428 166.996643,207.650696 
	C173.946579,207.612930 177.577972,204.198288 177.596161,197.215820 
	C177.688599,161.718323 177.613419,126.220421 177.685867,90.722839 
	C177.692429,87.512878 176.604874,86.210335 173.335770,86.298988 
	C167.507111,86.457054 161.670914,86.368965 155.838135,86.335793 
	C145.853561,86.279015 140.888931,81.313637 140.765121,71.230339 
	C140.703751,66.231369 140.490417,61.213928 140.821548,56.236485 
	C141.124191,51.687061 139.621307,50.200928 134.934982,50.239777 
	C109.271690,50.452522 83.605728,50.336861 57.940708,50.351204 
	C48.266655,50.356609 45.356030,53.224449 45.353752,62.776825 
	C45.343220,106.940697 45.343117,151.104568 45.353180,195.268433 
	C45.355335,204.726242 48.356579,207.662109 58.004333,207.666779 
	C81.169518,207.678009 104.334724,207.667847 128.499939,207.666992 
M156.799835,62.767033 
	C155.515228,61.904694 154.794678,60.064255 152.365570,60.404636 
	C152.365570,64.079948 152.364105,67.711746 152.366165,71.343544 
	C152.367279,73.285530 153.172531,74.633232 155.257965,74.631889 
	C159.161072,74.629395 163.114868,75.194839 167.403915,74.084641 
	C164.538803,69.539650 160.523315,66.757072 156.799835,62.767033 
z"/>
<path fill="#000000" opacity="1.000000" stroke="none" 
	d="
M115.000000,121.933365 
	C124.831367,121.936729 134.162735,121.945885 143.494095,121.940506 
	C145.668686,121.939247 147.846115,121.956245 149.895477,122.783684 
	C152.350815,123.775040 153.436157,125.673607 153.324295,128.294983 
	C153.210068,130.971313 151.837387,132.732727 149.261200,133.272217 
	C147.319702,133.678787 145.296570,133.854843 143.309219,133.858704 
	C121.813873,133.900513 100.318405,133.901688 78.823044,133.867126 
	C76.833679,133.863907 74.821030,133.674622 72.861366,133.331146 
	C69.997925,132.829254 68.581894,130.881287 68.489792,128.059174 
	C68.397095,125.219048 69.678452,123.173454 72.575348,122.622429 
	C74.685463,122.221062 76.860138,121.993874 79.007660,121.981941 
	C90.838158,121.916153 102.669167,121.940445 115.000000,121.933365 
z"/>
<path fill="#000000" opacity="1.000000" stroke="none" 
	d="
M96.000046,163.931641 
	C109.637001,163.925323 122.773972,163.916336 135.910934,163.917160 
	C137.406723,163.917252 138.912064,163.875305 140.396423,164.021133 
	C143.999634,164.375183 147.100769,165.658569 147.165283,169.861832 
	C147.230362,174.103302 144.212997,175.604721 140.540848,175.704849 
	C133.229904,175.904205 125.912804,175.918030 118.598114,175.930542 
	C105.627487,175.952728 92.656754,175.925766 79.686127,175.893906 
	C78.026787,175.889847 76.366264,175.756485 74.709007,175.643250 
	C71.130310,175.398712 68.569878,173.881546 68.453796,169.955978 
	C68.333595,165.890961 71.116592,164.306915 74.557426,164.172897 
	C81.530853,163.901276 88.518356,163.991074 96.000046,163.931641 
z"/>
<path fill="#000000" opacity="1.000000" stroke="none" 
	d="
M135.860931,154.313751 
	C126.839676,155.573730 118.180389,154.822067 109.541321,154.927216 
	C99.558792,155.048706 89.573143,154.957367 79.589272,154.893021 
	C77.435097,154.879135 75.264229,154.710205 73.133942,154.392303 
	C70.049500,153.932022 68.468826,151.956146 68.475700,148.878235 
	C68.482002,146.058929 69.824364,144.057663 72.715439,143.536301 
	C74.665268,143.184677 76.668076,142.971512 78.647911,142.966110 
	C95.787346,142.919327 112.926956,142.931915 130.066513,142.934128 
	C131.230453,142.934265 132.398499,142.942154 133.557526,143.035202 
	C136.655502,143.283890 139.076172,144.611465 139.791412,147.819092 
	C140.466873,150.848404 138.972137,152.923019 135.860931,154.313751 
z"/>
</svg>