<svg version="1.1" id="Layer_1" xmlns="http://www.w3.org/2000/svg" xmlns:xlink="http://www.w3.org/1999/xlink" x="0px" y="0px"
	 width="16%" height="16%" viewBox="0 0 256 256" enable-background="new 0 0 256 256" xml:space="preserve">
<path fill="#000000" opacity="1.000000" stroke="none" 
	d="
M120.947960,39.695930 
	C151.847366,45.871655 171.927612,63.589893 179.611710,93.843079 
	C185.176346,115.751717 180.411789,136.102402 166.563950,154.051178 
	C164.299210,156.986618 164.464981,158.575043 166.982910,161.064713 
	C182.854553,176.758102 198.588211,192.591064 214.364044,208.381317 
	C215.423264,209.441467 216.501373,210.488342 217.489029,211.613129 
	C219.246368,213.614426 219.746857,215.787491 217.618774,217.794586 
	C215.483597,219.808350 213.353058,219.090454 211.423080,217.314240 
	C210.443237,216.412430 209.507568,215.461914 208.565186,214.520157 
	C192.894806,198.860031 177.153900,183.269180 161.621765,167.473099 
	C158.670731,164.471939 156.874527,164.399048 153.434708,167.002533 
	C110.632141,199.398407 49.394436,175.384933 39.879810,122.611649 
	C32.674805,82.648735 61.082783,44.560482 101.640144,39.487782 
	C108.012863,38.690716 114.229279,38.768307 120.947960,39.695930 
M51.278225,88.755936 
	C47.852341,98.640755 46.355938,108.667076 48.086811,119.155914 
	C53.588940,152.498032 80.909821,174.781036 114.269760,172.933136 
	C146.357422,171.155716 171.395874,145.514359 173.037476,112.750328 
	C174.788116,77.810402 146.143188,47.494518 111.230476,47.337914 
	C84.653732,47.218700 62.267750,62.469376 51.278225,88.755936 
z"/>
</svg>