<svg version="1.1" id="Layer_1" xmlns="http://www.w3.org/2000/svg" xmlns:xlink="http://www.w3.org/1999/xlink" x="0px" y="0px"
	 width="26%" height="26%" viewBox="0 0 64 64" enable-background="new 0 0 64 64" xml:space="preserve">
<path fill="none" opacity="1.000000" stroke="#000000" stroke-linecap="round" stroke-linejoin="round" stroke-width="2.000000"
	d="
M31.500000,11.500000 
	C30.253656,11.920323 29.323978,12.296845 28.912376,13.978554 
	C27.565250,19.482559 26.985138,19.598835 21.995687,16.506958 
	C21.554049,16.233282 21.051771,16.057461 20.589775,15.841848 
	C18.172159,16.402014 17.362339,18.511799 16.226303,19.352409 
	C15.598704,21.244877 16.537079,22.084913 17.033007,22.981749 
	C19.136372,26.785461 18.864124,28.370081 14.981129,28.846050 
	C11.934508,29.219501 11.480459,30.567945 11.480460,33.000000 
	C11.480460,35.432056 11.890027,36.926590 14.991430,37.130402 
	C18.142492,37.337479 19.645502,39.300293 17.506878,42.504589 
	C16.885736,43.435242 16.347292,44.421085 15.817315,45.304340 
	C16.402014,47.827839 18.511799,48.637661 19.352409,49.773697 
	C21.244877,50.401295 22.084915,49.462929 22.981749,48.966995 
	C26.785461,46.863628 28.370087,47.135880 28.846052,51.018871 
	C29.219500,54.065495 30.567945,54.519543 33.000000,54.519543 
	C35.432056,54.519543 36.926590,54.109974 37.130402,51.008568 
	C37.337475,47.857510 39.300297,46.354496 42.504589,48.493126 
	C43.435242,49.114262 44.421085,49.652710 45.304340,50.182686 
	C47.827839,49.597988 48.637661,47.488201 49.773697,46.647591 
	C50.401295,44.755123 49.462925,43.915089 48.966991,43.018253 
	C46.863628,39.214542 47.135880,37.629910 51.018871,37.153946 
	C54.065495,36.780502 54.519543,35.432056 54.519543,33.000000 
	C54.519543,30.567945 54.109974,29.073410 51.008568,28.869596 
	C47.857510,28.662521 46.354500,26.699703 48.493122,23.495409 
	C49.114262,22.564758 49.652706,21.578913 50.182686,20.695660 
	C49.597988,18.172159 47.488201,17.362339 46.647591,16.226303 
	C44.755123,15.598704 43.915089,16.537079 43.018253,17.033010 
	C39.214542,19.136375 37.545803,18.861696 37.157864,14.984206 
	C36.764160,11.049119 34.450382,11.547075 32.000000,11.500000 
"/>
<path fill="none" opacity="1.000000" stroke="#000000" stroke-linecap="round" stroke-linejoin="round" stroke-width="2.000000"
	d="
M32.500000,24.500000 
	C27.290676,26.031567 24.364265,29.002581 24.538576,32.998318 
	C24.709299,36.911797 26.794909,39.686623 30.509153,40.973583 
	C34.793140,42.457947 39.617893,39.859299 41.000000,35.500000 
	C42.377434,31.155464 40.057426,26.695322 35.493595,25.017426 
	C34.705509,24.727684 33.833332,24.666668 33.000000,24.500000 
"/>
</svg>