<svg version="1.1" id="Layer_1" xmlns="http://www.w3.org/2000/svg" xmlns:xlink="http://www.w3.org/1999/xlink" x="0px" y="0px"
	 width="30%" height="30%" viewBox="0 0 256 256" enable-background="new 0 0 256 256" xml:space="preserve">
<path fill="#BAC8D3" opacity="0.000000" stroke="none"
	d="
M170.000000,257.000000 
	C113.333336,257.000000 57.166672,257.000000 1.000008,257.000000 
	C1.000005,171.666672 1.000005,86.333351 1.000003,1.000019 
	C86.333321,1.000013 171.666641,1.000013 257.000000,1.000006 
	C257.000000,86.333313 257.000000,171.666626 257.000000,256.999969 
	C228.166672,257.000000 199.333328,257.000000 170.000000,257.000000 
M218.701248,168.500153 
	C218.701202,150.357910 218.586807,132.214493 218.771790,114.074120 
	C218.826279,108.729919 216.881805,104.972015 212.023788,103.018600 
	C198.447510,97.559616 184.779678,97.603592 171.244476,103.114754 
	C166.907990,104.880432 164.771500,108.173676 164.799438,113.270905 
	C164.965485,143.562561 164.978455,173.856171 164.790314,204.147568 
	C164.757477,209.434784 166.854950,212.876419 171.410233,214.705109 
	C184.794189,220.077942 198.326401,220.025345 211.745468,214.836288 
	C216.518448,212.990631 218.878006,209.396469 218.769867,203.952423 
	C218.541824,192.472412 218.700958,180.984711 218.701248,168.500153 
M155.951218,162.501312 
	C155.951172,158.169312 155.740707,153.824402 156.005035,149.508591 
	C156.326569,144.258728 153.945969,140.787857 149.360794,138.925385 
	C135.786087,133.411362 122.105446,133.414291 108.545448,138.966492 
	C104.199028,140.746185 101.938126,144.026230 101.983597,149.099854 
	C102.149330,167.592728 102.140404,186.088745 101.988014,204.581848 
	C101.948105,209.424744 104.026100,212.679794 108.196693,214.421570 
	C122.055389,220.209473 136.025925,220.221481 149.877365,214.379410 
	C154.315155,212.507690 156.100555,208.948975 156.023117,203.987320 
	C155.812531,190.494736 155.951050,176.996689 155.951218,162.501312 
M88.259476,213.845840 
	C91.908569,211.672455 93.277191,208.528976 93.188164,204.243088 
	C92.973785,193.922729 92.918221,183.589386 93.202637,173.272415 
	C93.348244,167.990479 91.141029,164.599289 86.531349,162.757538 
	C72.943153,157.328476 59.280815,157.341721 45.731586,162.895645 
	C41.320465,164.703796 39.163326,168.098206 39.247448,173.093796 
	C39.418457,183.249207 39.516338,193.415939 39.217266,203.565399 
	C39.036064,209.714813 41.846954,213.384399 47.277023,215.265869 
	C60.820549,219.958618 74.296463,220.123642 88.259476,213.845840 
M87.411865,103.506645 
	C71.802574,117.176239 56.193283,130.845840 40.360229,144.711395 
	C41.970451,146.424744 43.172592,147.703873 44.473373,149.087952 
	C59.277111,136.147995 73.764511,123.363495 88.446678,110.806732 
	C90.246841,109.267159 93.080948,108.206894 95.450706,108.178940 
	C113.610085,107.964775 131.774704,108.176071 149.933167,107.925926 
	C152.391571,107.892052 155.422745,106.636841 157.176895,104.915855 
	C174.184174,88.229958 190.990524,71.338890 207.797104,54.449547 
	C209.038879,53.201660 209.838211,51.513508 210.843231,50.030029 
	C211.393219,50.402584 211.943222,50.775139 212.493225,51.147694 
	C212.493225,58.007729 212.493225,64.867760 212.493225,71.789810 
	C214.898407,71.789810 216.748093,71.789810 218.308838,71.789810 
	C218.308838,60.783112 218.308838,50.201481 218.308838,39.568886 
	C207.332001,39.568886 196.758682,39.568886 186.096863,39.568886 
	C186.096863,41.591057 186.096863,43.331352 186.096863,45.651421 
	C193.219070,45.651421 200.055252,45.651421 207.391464,45.651421 
	C206.714966,46.691563 206.522705,47.136559 206.204208,47.455494 
	C188.662262,65.020790 171.150284,82.616623 153.475143,100.046989 
	C152.174942,101.329185 149.693893,101.949646 147.754700,101.964767 
	C129.593903,102.106506 111.431458,102.023148 93.269798,102.090088 
	C91.519127,102.096535 89.770569,102.678329 87.411865,103.506645 
z"/>
<path fill="#080809" opacity="1.000000" stroke="none"
	d="
M218.701233,169.000153 
	C218.700958,180.984711 218.541824,192.472412 218.769867,203.952423 
	C218.878006,209.396469 216.518448,212.990631 211.745468,214.836288 
	C198.326401,220.025345 184.794189,220.077942 171.410233,214.705109 
	C166.854950,212.876419 164.757477,209.434784 164.790314,204.147568 
	C164.978455,173.856171 164.965485,143.562561 164.799438,113.270905 
	C164.771500,108.173676 166.907990,104.880432 171.244476,103.114754 
	C184.779678,97.603592 198.447510,97.559616 212.023788,103.018600 
	C216.881805,104.972015 218.826279,108.729919 218.771790,114.074120 
	C218.586807,132.214493 218.701202,150.357910 218.701233,169.000153 
M178.421326,115.337677 
	C190.210815,117.902184 201.727112,118.404175 212.837860,111.522110 
	C204.227097,102.957016 178.228333,103.132195 170.553528,111.778038 
	C173.056458,112.951721 175.354416,114.029282 178.421326,115.337677 
M188.824707,206.693100 
	C182.981964,205.631775 177.139206,204.570450 169.712616,203.221420 
	C171.348434,205.665115 172.133560,208.339691 173.756699,209.022614 
	C185.631760,214.019043 197.728912,214.046310 209.613617,209.048996 
	C211.275177,208.350327 212.141129,205.759537 213.569519,203.774872 
	C204.743683,204.869156 197.231384,205.800568 188.824707,206.693100 
M203.034653,169.819305 
	C192.227005,171.840439 181.637772,171.125519 170.703644,167.520233 
	C171.321640,169.809662 172.119843,172.495041 173.758881,173.186066 
	C185.596146,178.176727 197.626343,178.100754 209.576645,173.384155 
	C212.450012,172.250107 213.460999,170.163849 212.123322,167.072205 
	C209.197113,167.967163 206.521027,168.785629 203.034653,169.819305 
M201.196060,187.964447 
	C211.741837,185.475342 212.802155,184.641876 212.171997,178.934525 
	C198.596756,184.125122 185.003265,184.247162 171.433197,178.944641 
	C169.771240,182.778992 171.719925,184.679535 174.857544,185.857147 
	C183.138962,188.965378 191.668335,189.397064 201.196060,187.964447 
M185.144302,158.619308 
	C180.521118,157.550293 175.897919,156.481277 171.274734,155.412262 
	C170.896271,155.650177 170.517807,155.888107 170.139328,156.126038 
	C171.328964,157.884018 172.129852,160.555573 173.770493,161.253708 
	C185.608536,166.291260 197.642456,166.144180 209.582642,161.429764 
	C212.402100,160.316528 213.567505,158.237335 212.734848,156.509720 
	C203.353699,157.294128 194.695007,158.018112 185.144302,158.619308 
M202.951401,193.725754 
	C192.169037,195.789597 181.611557,194.938614 170.690506,191.488144 
	C171.339386,193.806000 172.188736,196.433884 173.845230,197.123810 
	C185.679916,202.052948 197.687546,201.985153 209.619202,197.250443 
	C212.547913,196.088303 213.339111,193.996307 212.143250,190.990448 
	C209.114151,191.886444 206.433319,192.679428 202.951401,193.725754 
M174.650223,137.967560 
	C185.685165,141.968307 196.770660,142.047913 207.869843,138.294113 
	C211.059631,137.215317 213.718460,135.626526 212.246353,131.149170 
	C198.631393,136.283142 185.016739,136.513031 171.432144,131.134506 
	C171.020691,131.439667 170.609238,131.744827 170.197784,132.050003 
	C171.437439,133.918854 172.677094,135.787704 174.650223,137.967560 
M210.061325,143.824905 
	C197.070602,148.445969 184.119980,147.985275 171.288254,143.133972 
	C170.033035,146.961044 171.634018,149.386078 174.765686,149.856766 
	C182.569641,151.029678 190.450409,152.185410 198.312546,152.274780 
	C202.416595,152.321442 206.720245,150.495193 210.608200,148.777893 
	C213.581390,147.464645 213.387924,144.951401 210.061325,143.824905 
M194.296555,128.940216 
	C199.300751,127.890984 204.430588,127.215614 209.243805,125.598083 
	C211.027313,124.998718 212.067337,122.186989 213.446426,120.384209 
	C213.047119,119.981834 212.647827,119.579453 212.248520,119.177071 
	C198.576370,124.461960 184.881516,124.393791 171.300125,119.259209 
	C170.017731,123.147194 171.704315,125.346764 174.829880,125.981293 
	C180.958160,127.225418 187.181656,128.000504 194.296555,128.940216 
z"/>
<path fill="#070808" opacity="1.000000" stroke="none" 
	d="
M155.951218,163.001068 
	C155.951050,176.996689 155.812531,190.494736 156.023117,203.987320 
	C156.100555,208.948975 154.315155,212.507690 149.877365,214.379410 
	C136.025925,220.221481 122.055389,220.209473 108.196693,214.421570 
	C104.026100,212.679794 101.948105,209.424744 101.988014,204.581848 
	C102.140404,186.088745 102.149330,167.592728 101.983597,149.099854 
	C101.938126,144.026230 104.199028,140.746185 108.545448,138.966492 
	C122.105446,133.414291 135.786087,133.411362 149.360794,138.925385 
	C153.945969,140.787857 156.326569,144.258728 156.005035,149.508591 
	C155.740707,153.824402 155.951172,158.169312 155.951218,163.001068 
M140.997391,142.191757 
	C129.590363,140.430862 118.313316,139.501221 107.698280,146.680099 
	C117.307693,155.021179 142.223846,154.796082 150.325317,146.183563 
	C147.288025,144.847137 144.534683,143.635666 140.997391,142.191757 
M127.637970,176.829620 
	C133.810150,175.823929 140.083557,175.214142 146.118332,173.671051 
	C150.032883,172.670120 150.231155,171.282547 149.177917,167.021286 
	C135.633316,172.322464 122.057983,172.181824 108.523720,166.957458 
	C107.100281,170.563385 108.679520,172.829086 111.734520,173.654327 
	C116.655243,174.983566 121.722809,175.769211 127.637970,176.829620 
M149.413177,159.642700 
	C149.590698,158.166565 149.768204,156.690445 150.001419,154.751221 
	C135.647598,160.370331 122.050491,160.246918 107.829346,155.558167 
	C108.618256,157.906662 109.584541,160.730286 111.368858,161.411621 
	C123.952850,166.216797 136.561935,166.706787 149.413177,159.642700 
M149.763641,194.868073 
	C149.763641,193.598587 149.763641,192.329086 149.763641,190.701660 
	C135.777481,196.209961 122.143105,196.113327 107.946877,191.311234 
	C108.468742,193.490326 109.063591,195.872467 110.574493,196.877548 
	C119.312477,202.690186 140.570206,201.790527 149.763641,194.868073 
M143.893433,186.631180 
	C147.146973,185.187469 151.248428,184.387787 149.520767,178.881622 
	C135.846451,184.220337 122.135902,184.188324 108.455421,178.886368 
	C107.027878,183.331329 109.581375,184.948792 112.784134,186.079163 
	C122.806519,189.616425 132.936920,189.474792 143.893433,186.631180 
M114.230354,210.528580 
	C124.757370,213.445038 135.253693,213.555481 145.594589,209.814987 
	C149.874756,208.266739 150.264008,207.159958 149.099289,202.907791 
	C135.581451,208.197647 121.988029,207.918610 108.384972,202.837570 
	C108.170647,207.911270 108.170647,207.911270 114.230354,210.528580 
z"/>
<path fill="#080809" opacity="1.000000" stroke="none" 
	d="
M87.918823,214.009018 
	C74.296463,220.123642 60.820549,219.958618 47.277023,215.265869 
	C41.846954,213.384399 39.036064,209.714813 39.217266,203.565399 
	C39.516338,193.415939 39.418457,183.249207 39.247448,173.093796 
	C39.163326,168.098206 41.320465,164.703796 45.731586,162.895645 
	C59.280815,157.341721 72.943153,157.328476 86.531349,162.757538 
	C91.141029,164.599289 93.348244,167.990479 93.202637,173.272415 
	C92.918221,183.589386 92.973785,193.922729 93.188164,204.243088 
	C93.277191,208.528976 91.908569,211.672455 87.918823,214.009018 
M79.729797,166.567307 
	C67.914818,164.057526 56.341095,163.461288 45.222248,170.247589 
	C53.079231,178.805557 79.029259,178.841705 87.537498,170.233444 
	C85.022972,169.021317 82.755493,167.928284 79.729797,166.567307 
M47.365112,203.242752 
	C46.678562,203.814072 45.323612,204.738571 45.409767,204.901611 
	C46.195370,206.388351 46.928116,208.477722 48.242458,209.020737 
	C60.264450,213.987808 72.445717,214.033997 84.415817,208.927429 
	C85.973541,208.262878 86.653542,205.540894 87.740097,203.771896 
	C87.327751,203.477753 86.915405,203.183594 86.503059,202.889450 
	C73.758026,207.740723 60.950314,208.108337 47.365112,203.242752 
M64.631027,182.809280 
	C58.326675,181.780624 52.022324,180.751984 45.555336,179.696793 
	C44.453152,182.495056 45.944702,184.449142 48.747379,185.520630 
	C60.373749,189.965469 72.051743,189.893448 83.696678,185.573898 
	C86.783134,184.429001 88.058807,182.342865 86.975166,179.945251 
	C79.552841,180.937485 72.549782,181.873672 64.631027,182.809280 
M59.379150,200.172958 
	C67.369873,199.357101 75.442619,198.987732 83.317421,197.540909 
	C87.381386,196.794250 87.483131,195.346222 86.284241,190.961823 
	C72.811882,196.308868 59.253120,195.924225 45.086510,191.596970 
	C45.857643,193.985901 46.848476,196.369827 48.581520,197.195023 
	C51.655434,198.658676 55.179855,199.176208 59.379150,200.172958 
z"/>
<path fill="#0A0A0B" opacity="1.000000" stroke="none"
	d="
M87.716446,103.249847 
	C89.770569,102.678329 91.519127,102.096535 93.269798,102.090088 
	C111.431458,102.023148 129.593903,102.106506 147.754700,101.964767 
	C149.693893,101.949646 152.174942,101.329185 153.475143,100.046989 
	C171.150284,82.616623 188.662262,65.020790 206.204208,47.455494 
	C206.522705,47.136559 206.714966,46.691563 207.391464,45.651421 
	C200.055252,45.651421 193.219070,45.651421 186.096863,45.651421 
	C186.096863,43.331352 186.096863,41.591057 186.096863,39.568886 
	C196.758682,39.568886 207.332001,39.568886 218.308838,39.568886 
	C218.308838,50.201481 218.308838,60.783112 218.308838,71.789810 
	C216.748093,71.789810 214.898407,71.789810 212.493225,71.789810 
	C212.493225,64.867760 212.493225,58.007729 212.493225,51.147694 
	C211.943222,50.775139 211.393219,50.402584 210.843231,50.030029 
	C209.838211,51.513508 209.038879,53.201660 207.797104,54.449547 
	C190.990524,71.338890 174.184174,88.229958 157.176895,104.915855 
	C155.422745,106.636841 152.391571,107.892052 149.933167,107.925926 
	C131.774704,108.176071 113.610085,107.964775 95.450706,108.178940 
	C93.080948,108.206894 90.246841,109.267159 88.446678,110.806732 
	C73.764511,123.363495 59.277111,136.147995 44.473373,149.087952 
	C43.172592,147.703873 41.970451,146.424744 40.360229,144.711395 
	C56.193283,130.845840 71.802574,117.176239 87.716446,103.249847 
z"/>
<path fill="#B4C2CC" opacity="1.000000" stroke="none" 
	d="
M178.036835,115.222260 
	C175.354416,114.029282 173.056458,112.951721 170.553528,111.778038 
	C178.228333,103.132195 204.227097,102.957016 212.837860,111.522110 
	C201.727112,118.404175 190.210815,117.902184 178.036835,115.222260 
z"/>
<path fill="#B0BDC7" opacity="1.000000" stroke="none"
	d="
M189.271912,206.712555 
	C197.231384,205.800568 204.743683,204.869156 213.569519,203.774872 
	C212.141129,205.759537 211.275177,208.350327 209.613617,209.048996 
	C197.728912,214.046310 185.631760,214.019043 173.756699,209.022614 
	C172.133560,208.339691 171.348434,205.665115 169.712616,203.221420 
	C177.139206,204.570450 182.981964,205.631775 189.271912,206.712555 
z"/>
<path fill="#B0BDC8" opacity="1.000000" stroke="none" 
	d="
M203.439789,169.711700 
	C206.521027,168.785629 209.197113,167.967163 212.123322,167.072205 
	C213.460999,170.163849 212.450012,172.250107 209.576645,173.384155 
	C197.626343,178.100754 185.596146,178.176727 173.758881,173.186066 
	C172.119843,172.495041 171.321640,169.809662 170.703644,167.520233 
	C181.637772,171.125519 192.227005,171.840439 203.439789,169.711700 
z"/>
<path fill="#B0BDC8" opacity="1.000000" stroke="none" 
	d="
M200.769150,188.008057 
	C191.668335,189.397064 183.138962,188.965378 174.857544,185.857147 
	C171.719925,184.679535 169.771240,182.778992 171.433197,178.944641 
	C185.003265,184.247162 198.596756,184.125122 212.171997,178.934525 
	C212.802155,184.641876 211.741837,185.475342 200.769150,188.008057 
z"/>
<path fill="#B0BEC8" opacity="1.000000" stroke="none" 
	d="
M185.590302,158.680710 
	C194.695007,158.018112 203.353699,157.294128 212.734848,156.509720 
	C213.567505,158.237335 212.402100,160.316528 209.582642,161.429764 
	C197.642456,166.144180 185.608536,166.291260 173.770493,161.253708 
	C172.129852,160.555573 171.328964,157.884018 170.139328,156.126038 
	C170.517807,155.888107 170.896271,155.650177 171.274734,155.412262 
	C175.897919,156.481277 180.521118,157.550293 185.590302,158.680710 
z"/>
<path fill="#AFBCC7" opacity="1.000000" stroke="none" 
	d="
M203.351944,193.599091 
	C206.433319,192.679428 209.114151,191.886444 212.143250,190.990448 
	C213.339111,193.996307 212.547913,196.088303 209.619202,197.250443 
	C197.687546,201.985153 185.679916,202.052948 173.845230,197.123810 
	C172.188736,196.433884 171.339386,193.806000 170.690506,191.488144 
	C181.611557,194.938614 192.169037,195.789597 203.351944,193.599091 
z"/>
<path fill="#B1BEC9" opacity="1.000000" stroke="none" 
	d="
M174.283478,137.812057 
	C172.677094,135.787704 171.437439,133.918854 170.197784,132.050003 
	C170.609238,131.744827 171.020691,131.439667 171.432144,131.134506 
	C185.016739,136.513031 198.631393,136.283142 212.246353,131.149170 
	C213.718460,135.626526 211.059631,137.215317 207.869843,138.294113 
	C196.770660,142.047913 185.685165,141.968307 174.283478,137.812057 
z"/>
<path fill="#B1BEC9" opacity="1.000000" stroke="none" 
	d="
M210.408569,143.668976 
	C213.387924,144.951401 213.581390,147.464645 210.608200,148.777893 
	C206.720245,150.495193 202.416595,152.321442 198.312546,152.274780 
	C190.450409,152.185410 182.569641,151.029678 174.765686,149.856766 
	C171.634018,149.386078 170.033035,146.961044 171.288254,143.133972 
	C184.119980,147.985275 197.070602,148.445969 210.408569,143.668976 
z"/>
<path fill="#B2C0CA" opacity="1.000000" stroke="none" 
	d="
M193.831146,128.954956 
	C187.181656,128.000504 180.958160,127.225418 174.829880,125.981293 
	C171.704315,125.346764 170.017731,123.147194 171.300125,119.259209 
	C184.881516,124.393791 198.576370,124.461960 212.248520,119.177071 
	C212.647827,119.579453 213.047119,119.981834 213.446426,120.384209 
	C212.067337,122.186989 211.027313,124.998718 209.243805,125.598083 
	C204.430588,127.215614 199.300751,127.890984 193.831146,128.954956 
z"/>
<path fill="#B3C1CC" opacity="1.000000" stroke="none" 
	d="
M141.389374,142.307968 
	C144.534683,143.635666 147.288025,144.847137 150.325317,146.183563 
	C142.223846,154.796082 117.307693,155.021179 107.698280,146.680099 
	C118.313316,139.501221 129.590363,140.430862 141.389374,142.307968 
z"/>
<path fill="#B0BDC8" opacity="1.000000" stroke="none" 
	d="
M127.183151,176.807053 
	C121.722809,175.769211 116.655243,174.983566 111.734520,173.654327 
	C108.679520,172.829086 107.100281,170.563385 108.523720,166.957458 
	C122.057983,172.181824 135.633316,172.322464 149.177917,167.021286 
	C150.231155,171.282547 150.032883,172.670120 146.118332,173.671051 
	C140.083557,175.214142 133.810150,175.823929 127.183151,176.807053 
z"/>
<path fill="#B0BDC8" opacity="1.000000" stroke="none" 
	d="
M149.133179,159.913513 
	C136.561935,166.706787 123.952850,166.216797 111.368858,161.411621 
	C109.584541,160.730286 108.618256,157.906662 107.829346,155.558167 
	C122.050491,160.246918 135.647598,160.370331 150.001419,154.751221 
	C149.768204,156.690445 149.590698,158.166565 149.133179,159.913513 
z"/>
<path fill="#B1BEC9" opacity="1.000000" stroke="none" 
	d="
M149.548676,195.201569 
	C140.570206,201.790527 119.312477,202.690186 110.574493,196.877548 
	C109.063591,195.872467 108.468742,193.490326 107.946877,191.311234 
	C122.143105,196.113327 135.777481,196.209961 149.763641,190.701660 
	C149.763641,192.329086 149.763641,193.598587 149.548676,195.201569 
z"/>
<path fill="#B0BEC8" opacity="1.000000" stroke="none" 
	d="
M143.510193,186.756409 
	C132.936920,189.474792 122.806519,189.616425 112.784134,186.079163 
	C109.581375,184.948792 107.027878,183.331329 108.455421,178.886368 
	C122.135902,184.188324 135.846451,184.220337 149.520767,178.881622 
	C151.248428,184.387787 147.146973,185.187469 143.510193,186.756409 
z"/>
<path fill="#B1BFC9" opacity="1.000000" stroke="none" 
	d="
M113.859138,210.372299 
	C108.170647,207.911270 108.170647,207.911270 108.384972,202.837570 
	C121.988029,207.918610 135.581451,208.197647 149.099289,202.907791 
	C150.264008,207.159958 149.874756,208.266739 145.594589,209.814987 
	C135.253693,213.555481 124.757370,213.445038 113.859138,210.372299 
z"/>
<path fill="#B4C2CC" opacity="1.000000" stroke="none" 
	d="
M80.108910,166.701279 
	C82.755493,167.928284 85.022972,169.021317 87.537498,170.233444 
	C79.029259,178.841705 53.079231,178.805557 45.222248,170.247589 
	C56.341095,163.461288 67.914818,164.057526 80.108910,166.701279 
z"/>
<path fill="#B0BDC7" opacity="1.000000" stroke="none" 
	d="
M47.719727,203.418045 
	C60.950314,208.108337 73.758026,207.740723 86.503059,202.889450 
	C86.915405,203.183594 87.327751,203.477753 87.740097,203.771896 
	C86.653542,205.540894 85.973541,208.262878 84.415817,208.927429 
	C72.445717,214.033997 60.264450,213.987808 48.242458,209.020737 
	C46.928116,208.477722 46.195370,206.388351 45.409767,204.901611 
	C45.323612,204.738571 46.678562,203.814072 47.719727,203.418045 
z"/>
<path fill="#B0BDC8" opacity="1.000000" stroke="none" 
	d="
M65.088867,182.809570 
	C72.549782,181.873672 79.552841,180.937485 86.975166,179.945251 
	C88.058807,182.342865 86.783134,184.429001 83.696678,185.573898 
	C72.051743,189.893448 60.373749,189.965469 48.747379,185.520630 
	C45.944702,184.449142 44.453152,182.495056 45.555336,179.696793 
	C52.022324,180.751984 58.326675,181.780624 65.088867,182.809570 
z"/>
<path fill="#AFBCC7" opacity="1.000000" stroke="none" 
	d="
M58.947468,200.131287 
	C55.179855,199.176208 51.655434,198.658676 48.581520,197.195023 
	C46.848476,196.369827 45.857643,193.985901 45.086510,191.596970 
	C59.253120,195.924225 72.811882,196.308868 86.284241,190.961823 
	C87.483131,195.346222 87.381386,196.794250 83.317421,197.540909 
	C75.442619,198.987732 67.369873,199.357101 58.947468,200.131287 
z"/>
</svg>